<svg xmlns="http://www.w3.org/2000/svg" xmlns:xlink="http://www.w3.org/1999/xlink" contentStyleType="text/css" height="1010px" preserveAspectRatio="none" style="width:726px;height:1010px;background:#FFFFFF;" version="1.1" viewBox="0 0 726 1010" width="726px" zoomAndPan="magnify"><defs/><g><rect fill="#DDDDDD" height="998.4531" style="stroke:#181818;stroke-width:0.5;" width="52.4111" x="180.2544" y="6"/><text fill="#000000" font-family="sans-serif" font-size="13" font-weight="bold" lengthAdjust="spacing" textLength="44.0908" x="184.4146" y="18.0669">Cache</text><rect fill="#DDDDDD" height="998.4531" style="stroke:#181818;stroke-width:0.5;" width="171.5654" x="318.1289" y="6"/><text fill="#000000" font-family="sans-serif" font-size="13" font-weight="bold" lengthAdjust="spacing" textLength="41.9199" x="382.9517" y="18.0669">Kafka</text><rect fill="#008000" height="115.3984" style="stroke:#181818;stroke-width:1.0;" width="10" x="119.9604" y="118.5625"/><rect fill="#FFFF00" height="129.5313" style="stroke:#181818;stroke-width:1.0;" width="10" x="119.9604" y="373.3594"/><rect fill="#FF0000" height="303.0625" style="stroke:#181818;stroke-width:1.0;" width="10" x="119.9604" y="546.8281"/><rect fill="#008000" height="14" style="stroke:#181818;stroke-width:1.0;" width="10" x="201.46" y="147.6953"/><rect fill="#008000" height="35.1328" style="stroke:#181818;stroke-width:1.0;" width="10" x="201.46" y="431.625"/><rect fill="#008000" height="35.1328" style="stroke:#181818;stroke-width:1.0;" width="10" x="201.46" y="778.625"/><rect fill="#008000" height="29.1328" style="stroke:#181818;stroke-width:1.0;" width="10" x="273.9585" y="373.3594"/><rect fill="#FFFFFF" height="14" style="stroke:#181818;stroke-width:1.0;" width="10" x="352.4253" y="190.8281"/><rect fill="#FFFFFF" height="29.1328" style="stroke:#181818;stroke-width:1.0;" width="10" x="352.4253" y="546.8281"/><rect fill="#FFFFFF" height="59.1328" style="stroke:#181818;stroke-width:1.0;" width="10" x="439.208" y="690.3594"/><rect fill="#FFFFFF" height="44" style="stroke:#181818;stroke-width:1.0;" width="10" x="533.9727" y="233.9609"/><rect fill="#FFFFFF" height="144.3984" style="stroke:#181818;stroke-width:1.0;" width="10" x="533.9727" y="575.9609"/><rect fill="#008000" height="65.1328" style="stroke:#181818;stroke-width:1.0;" width="10" x="627.668" y="247.9609"/><rect fill="#008000" height="56.1328" style="stroke:#181818;stroke-width:1.0;" width="10" x="627.668" y="605.0938"/><rect fill="none" height="522.7969" style="stroke:#000000;stroke-width:1.5;" width="671.4761" x="11" y="335.0938"/><line style="stroke:#181818;stroke-width:0.5;stroke-dasharray:5.0,5.0;" x1="44" x2="44" y1="87.4297" y2="925.1563"/><line style="stroke:#181818;stroke-width:0.5;stroke-dasharray:5.0,5.0;" x1="124.4795" x2="124.4795" y1="87.4297" y2="925.1563"/><line style="stroke:#181818;stroke-width:0.5;stroke-dasharray:5.0,5.0;" x1="206.2544" x2="206.2544" y1="87.4297" y2="925.1563"/><line style="stroke:#181818;stroke-width:0.5;stroke-dasharray:5.0,5.0;" x1="278.7881" x2="278.7881" y1="87.4297" y2="925.1563"/><line style="stroke:#181818;stroke-width:0.5;stroke-dasharray:5.0,5.0;" x1="357.1289" x2="357.1289" y1="87.4297" y2="925.1563"/><line style="stroke:#181818;stroke-width:0.5;stroke-dasharray:5.0,5.0;" x1="443.7217" x2="443.7217" y1="87.4297" y2="925.1563"/><line style="stroke:#181818;stroke-width:0.5;stroke-dasharray:5.0,5.0;" x1="538.6943" x2="538.6943" y1="87.4297" y2="925.1563"/><line style="stroke:#181818;stroke-width:0.5;stroke-dasharray:5.0,5.0;" x1="631.8599" x2="631.8599" y1="87.4297" y2="925.1563"/><text fill="#000000" font-family="sans-serif" font-size="14" lengthAdjust="spacing" textLength="40.5303" x="21" y="84.1279">Client</text><ellipse cx="44.2651" cy="19.6328" fill="#E2E2F0" rx="8" ry="8" style="stroke:#181818;stroke-width:0.5;"/><path d="M44.2651,27.6328 L44.2651,54.6328 M31.2651,35.6328 L57.2651,35.6328 M44.2651,54.6328 L31.2651,69.6328 M44.2651,54.6328 L57.2651,69.6328 " fill="none" style="stroke:#181818;stroke-width:0.5;"/><text fill="#000000" font-family="sans-serif" font-size="14" lengthAdjust="spacing" textLength="40.5303" x="21" y="937.1514">Client</text><ellipse cx="44.2651" cy="948.9531" fill="#E2E2F0" rx="8" ry="8" style="stroke:#181818;stroke-width:0.5;"/><path d="M44.2651,956.9531 L44.2651,983.9531 M31.2651,964.9531 L57.2651,964.9531 M44.2651,983.9531 L31.2651,998.9531 M44.2651,983.9531 L57.2651,998.9531 " fill="none" style="stroke:#181818;stroke-width:0.5;"/><rect fill="#E2E2F0" height="30.2969" rx="2.5" ry="2.5" style="stroke:#181818;stroke-width:0.5;" width="78.9619" x="85.4795" y="56.1328"/><text fill="#000000" font-family="sans-serif" font-size="14" lengthAdjust="spacing" textLength="64.9619" x="92.4795" y="76.1279">publisher</text><rect fill="#E2E2F0" height="30.2969" rx="2.5" ry="2.5" style="stroke:#181818;stroke-width:0.5;" width="78.9619" x="85.4795" y="924.1563"/><text fill="#000000" font-family="sans-serif" font-size="14" lengthAdjust="spacing" textLength="64.9619" x="92.4795" y="944.1514">publisher</text><text fill="#000000" font-family="sans-serif" font-size="14" lengthAdjust="spacing" textLength="38.4111" x="184.2544" y="84.1279">Redis</text><path d="M188.46,35.1328 C188.46,25.1328 206.46,25.1328 206.46,25.1328 C206.46,25.1328 224.46,25.1328 224.46,35.1328 L224.46,61.1328 C224.46,71.1328 206.46,71.1328 206.46,71.1328 C206.46,71.1328 188.46,71.1328 188.46,61.1328 L188.46,35.1328 " fill="#E2E2F0" style="stroke:#181818;stroke-width:1.5;"/><path d="M188.46,35.1328 C188.46,45.1328 206.46,45.1328 206.46,45.1328 C206.46,45.1328 224.46,45.1328 224.46,35.1328 " fill="none" style="stroke:#181818;stroke-width:1.5;"/><text fill="#000000" font-family="sans-serif" font-size="14" lengthAdjust="spacing" textLength="38.4111" x="184.2544" y="937.1514">Redis</text><path d="M188.46,950.4531 C188.46,940.4531 206.46,940.4531 206.46,940.4531 C206.46,940.4531 224.46,940.4531 224.46,950.4531 L224.46,976.4531 C224.46,986.4531 206.46,986.4531 206.46,986.4531 C206.46,986.4531 188.46,986.4531 188.46,976.4531 L188.46,950.4531 " fill="#E2E2F0" style="stroke:#181818;stroke-width:1.5;"/><path d="M188.46,950.4531 C188.46,960.4531 206.46,960.4531 206.46,960.4531 C206.46,960.4531 224.46,960.4531 224.46,950.4531 " fill="none" style="stroke:#181818;stroke-width:1.5;"/><text fill="#000000" font-family="sans-serif" font-size="14" lengthAdjust="spacing" textLength="60.3408" x="245.7881" y="84.1279">Postgres</text><path d="M260.9585,35.1328 C260.9585,25.1328 278.9585,25.1328 278.9585,25.1328 C278.9585,25.1328 296.9585,25.1328 296.9585,35.1328 L296.9585,61.1328 C296.9585,71.1328 278.9585,71.1328 278.9585,71.1328 C278.9585,71.1328 260.9585,71.1328 260.9585,61.1328 L260.9585,35.1328 " fill="#E2E2F0" style="stroke:#181818;stroke-width:1.5;"/><path d="M260.9585,35.1328 C260.9585,45.1328 278.9585,45.1328 278.9585,45.1328 C278.9585,45.1328 296.9585,45.1328 296.9585,35.1328 " fill="none" style="stroke:#181818;stroke-width:1.5;"/><text fill="#000000" font-family="sans-serif" font-size="14" lengthAdjust="spacing" textLength="60.3408" x="245.7881" y="937.1514">Postgres</text><path d="M260.9585,950.4531 C260.9585,940.4531 278.9585,940.4531 278.9585,940.4531 C278.9585,940.4531 296.9585,940.4531 296.9585,950.4531 L296.9585,976.4531 C296.9585,986.4531 278.9585,986.4531 278.9585,986.4531 C278.9585,986.4531 260.9585,986.4531 260.9585,976.4531 L260.9585,950.4531 " fill="#E2E2F0" style="stroke:#181818;stroke-width:1.5;"/><path d="M260.9585,950.4531 C260.9585,960.4531 278.9585,960.4531 278.9585,960.4531 C278.9585,960.4531 296.9585,960.4531 296.9585,950.4531 " fill="none" style="stroke:#181818;stroke-width:1.5;"/><path d="M327.1289,61.1328 L387.7217,61.1328 C392.7217,61.1328 392.7217,74.2813 392.7217,74.2813 C392.7217,74.2813 392.7217,87.4297 387.7217,87.4297 L327.1289,87.4297 C322.1289,87.4297 322.1289,74.2813 322.1289,74.2813 C322.1289,74.2813 322.1289,61.1328 327.1289,61.1328 " fill="#E2E2F0" style="stroke:#181818;stroke-width:0.5;"/><path d="M387.7217,61.1328 C382.7217,61.1328 382.7217,74.2813 382.7217,74.2813 C382.7217,87.4297 387.7217,87.4297 387.7217,87.4297 " fill="none" style="stroke:#181818;stroke-width:0.5;"/><text fill="#000000" font-family="sans-serif" font-size="14" lengthAdjust="spacing" textLength="50.5928" x="327.1289" y="79.1279">InTopic</text><path d="M327.1289,924.1563 L387.7217,924.1563 C392.7217,924.1563 392.7217,937.3047 392.7217,937.3047 C392.7217,937.3047 392.7217,950.4531 387.7217,950.4531 L327.1289,950.4531 C322.1289,950.4531 322.1289,937.3047 322.1289,937.3047 C322.1289,937.3047 322.1289,924.1563 327.1289,924.1563 " fill="#E2E2F0" style="stroke:#181818;stroke-width:0.5;"/><path d="M387.7217,924.1563 C382.7217,924.1563 382.7217,937.3047 382.7217,937.3047 C382.7217,950.4531 387.7217,950.4531 387.7217,950.4531 " fill="none" style="stroke:#181818;stroke-width:0.5;"/><text fill="#000000" font-family="sans-serif" font-size="14" lengthAdjust="spacing" textLength="50.5928" x="327.1289" y="942.1514">InTopic</text><path d="M407.7217,61.1328 L480.6943,61.1328 C485.6943,61.1328 485.6943,74.2813 485.6943,74.2813 C485.6943,74.2813 485.6943,87.4297 480.6943,87.4297 L407.7217,87.4297 C402.7217,87.4297 402.7217,74.2813 402.7217,74.2813 C402.7217,74.2813 402.7217,61.1328 407.7217,61.1328 " fill="#E2E2F0" style="stroke:#181818;stroke-width:0.5;"/><path d="M480.6943,61.1328 C475.6943,61.1328 475.6943,74.2813 475.6943,74.2813 C475.6943,87.4297 480.6943,87.4297 480.6943,87.4297 " fill="none" style="stroke:#181818;stroke-width:0.5;"/><text fill="#000000" font-family="sans-serif" font-size="14" lengthAdjust="spacing" textLength="62.9727" x="407.7217" y="79.1279">OutTopic</text><path d="M407.7217,924.1563 L480.6943,924.1563 C485.6943,924.1563 485.6943,937.3047 485.6943,937.3047 C485.6943,937.3047 485.6943,950.4531 480.6943,950.4531 L407.7217,950.4531 C402.7217,950.4531 402.7217,937.3047 402.7217,937.3047 C402.7217,937.3047 402.7217,924.1563 407.7217,924.1563 " fill="#E2E2F0" style="stroke:#181818;stroke-width:0.5;"/><path d="M480.6943,924.1563 C475.6943,924.1563 475.6943,937.3047 475.6943,937.3047 C475.6943,950.4531 480.6943,950.4531 480.6943,950.4531 " fill="none" style="stroke:#181818;stroke-width:0.5;"/><text fill="#000000" font-family="sans-serif" font-size="14" lengthAdjust="spacing" textLength="62.9727" x="407.7217" y="942.1514">OutTopic</text><rect fill="#E2E2F0" height="30.2969" rx="2.5" ry="2.5" style="stroke:#181818;stroke-width:0.5;" width="86.5566" x="495.6943" y="56.1328"/><text fill="#000000" font-family="sans-serif" font-size="14" lengthAdjust="spacing" textLength="72.5566" x="502.6943" y="76.1279">discussion</text><rect fill="#E2E2F0" height="30.2969" rx="2.5" ry="2.5" style="stroke:#181818;stroke-width:0.5;" width="86.5566" x="495.6943" y="924.1563"/><text fill="#000000" font-family="sans-serif" font-size="14" lengthAdjust="spacing" textLength="72.5566" x="502.6943" y="944.1514">discussion</text><text fill="#000000" font-family="sans-serif" font-size="14" lengthAdjust="spacing" textLength="73.6162" x="592.8599" y="84.1279">Cassandra</text><path d="M614.668,35.1328 C614.668,25.1328 632.668,25.1328 632.668,25.1328 C632.668,25.1328 650.668,25.1328 650.668,35.1328 L650.668,61.1328 C650.668,71.1328 632.668,71.1328 632.668,71.1328 C632.668,71.1328 614.668,71.1328 614.668,61.1328 L614.668,35.1328 " fill="#E2E2F0" style="stroke:#181818;stroke-width:1.5;"/><path d="M614.668,35.1328 C614.668,45.1328 632.668,45.1328 632.668,45.1328 C632.668,45.1328 650.668,45.1328 650.668,35.1328 " fill="none" style="stroke:#181818;stroke-width:1.5;"/><text fill="#000000" font-family="sans-serif" font-size="14" lengthAdjust="spacing" textLength="73.6162" x="592.8599" y="937.1514">Cassandra</text><path d="M614.668,950.4531 C614.668,940.4531 632.668,940.4531 632.668,940.4531 C632.668,940.4531 650.668,940.4531 650.668,950.4531 L650.668,976.4531 C650.668,986.4531 632.668,986.4531 632.668,986.4531 C632.668,986.4531 614.668,986.4531 614.668,976.4531 L614.668,950.4531 " fill="#E2E2F0" style="stroke:#181818;stroke-width:1.5;"/><path d="M614.668,950.4531 C614.668,960.4531 632.668,960.4531 632.668,960.4531 C632.668,960.4531 650.668,960.4531 650.668,950.4531 " fill="none" style="stroke:#181818;stroke-width:1.5;"/><rect fill="#008000" height="115.3984" style="stroke:#181818;stroke-width:1.0;" width="10" x="119.9604" y="118.5625"/><rect fill="#FFFF00" height="129.5313" style="stroke:#181818;stroke-width:1.0;" width="10" x="119.9604" y="373.3594"/><rect fill="#FF0000" height="303.0625" style="stroke:#181818;stroke-width:1.0;" width="10" x="119.9604" y="546.8281"/><rect fill="#008000" height="14" style="stroke:#181818;stroke-width:1.0;" width="10" x="201.46" y="147.6953"/><rect fill="#008000" height="35.1328" style="stroke:#181818;stroke-width:1.0;" width="10" x="201.46" y="431.625"/><rect fill="#008000" height="35.1328" style="stroke:#181818;stroke-width:1.0;" width="10" x="201.46" y="778.625"/><rect fill="#008000" height="29.1328" style="stroke:#181818;stroke-width:1.0;" width="10" x="273.9585" y="373.3594"/><rect fill="#FFFFFF" height="14" style="stroke:#181818;stroke-width:1.0;" width="10" x="352.4253" y="190.8281"/><rect fill="#FFFFFF" height="29.1328" style="stroke:#181818;stroke-width:1.0;" width="10" x="352.4253" y="546.8281"/><rect fill="#FFFFFF" height="59.1328" style="stroke:#181818;stroke-width:1.0;" width="10" x="439.208" y="690.3594"/><rect fill="#FFFFFF" height="44" style="stroke:#181818;stroke-width:1.0;" width="10" x="533.9727" y="233.9609"/><rect fill="#FFFFFF" height="144.3984" style="stroke:#181818;stroke-width:1.0;" width="10" x="533.9727" y="575.9609"/><rect fill="#008000" height="65.1328" style="stroke:#181818;stroke-width:1.0;" width="10" x="627.668" y="247.9609"/><rect fill="#008000" height="56.1328" style="stroke:#181818;stroke-width:1.0;" width="10" x="627.668" y="605.0938"/><polygon fill="#181818" points="107.9604,114.5625,117.9604,118.5625,107.9604,122.5625,111.9604,118.5625" style="stroke:#181818;stroke-width:1.0;"/><line style="stroke:#181818;stroke-width:1.0;" x1="44.2651" x2="113.9604" y1="118.5625" y2="118.5625"/><text fill="#000000" font-family="sans-serif" font-size="13" lengthAdjust="spacing" textLength="49.7021" x="51.2651" y="113.4966">request</text><polygon fill="#181818" points="189.46,143.6953,199.46,147.6953,189.46,151.6953,193.46,147.6953" style="stroke:#181818;stroke-width:1.0;"/><line style="stroke:#181818;stroke-width:1.0;" x1="129.9604" x2="195.46" y1="147.6953" y2="147.6953"/><text fill="#000000" font-family="sans-serif" font-size="13" lengthAdjust="spacing" textLength="49.7021" x="136.9604" y="142.6294">request</text><polygon fill="#181818" points="140.9604,157.6953,130.9604,161.6953,140.9604,165.6953,136.9604,161.6953" style="stroke:#181818;stroke-width:1.0;"/><line style="stroke:#181818;stroke-width:1.0;stroke-dasharray:2.0,2.0;" x1="134.9604" x2="205.46" y1="161.6953" y2="161.6953"/><polygon fill="#181818" points="340.4253,186.8281,350.4253,190.8281,340.4253,194.8281,344.4253,190.8281" style="stroke:#181818;stroke-width:1.0;"/><line style="stroke:#181818;stroke-width:1.0;" x1="129.9604" x2="346.4253" y1="190.8281" y2="190.8281"/><text fill="#000000" font-family="sans-serif" font-size="13" lengthAdjust="spacing" textLength="137.0205" x="136.9604" y="185.7622">update if _comment_</text><polygon fill="#181818" points="526.9727,200.8281,536.9727,204.8281,526.9727,208.8281,530.9727,204.8281" style="stroke:#181818;stroke-width:1.0;"/><line style="stroke:#181818;stroke-width:1.0;" x1="357.4253" x2="532.9727" y1="204.8281" y2="204.8281"/><polygon fill="#181818" points="55.2651,229.9609,45.2651,233.9609,55.2651,237.9609,51.2651,233.9609" style="stroke:#181818;stroke-width:1.0;"/><line style="stroke:#181818;stroke-width:1.0;stroke-dasharray:2.0,2.0;" x1="49.2651" x2="123.9604" y1="233.9609" y2="233.9609"/><text fill="#000000" font-family="sans-serif" font-size="13" lengthAdjust="spacing" textLength="23.6577" x="61.2651" y="228.895">2xx</text><polygon fill="#181818" points="615.668,243.9609,625.668,247.9609,615.668,251.9609,619.668,247.9609" style="stroke:#181818;stroke-width:1.0;"/><line style="stroke:#181818;stroke-width:1.0;" x1="543.9727" x2="621.668" y1="247.9609" y2="247.9609"/><line style="stroke:#181818;stroke-width:1.0;stroke-dasharray:2.0,2.0;" x1="637.668" x2="679.668" y1="312.0938" y2="312.0938"/><line style="stroke:#181818;stroke-width:1.0;stroke-dasharray:2.0,2.0;" x1="679.668" x2="679.668" y1="312.0938" y2="325.0938"/><line style="stroke:#181818;stroke-width:1.0;stroke-dasharray:2.0,2.0;" x1="632.668" x2="679.668" y1="325.0938" y2="325.0938"/><polygon fill="#181818" points="642.668,321.0938,632.668,325.0938,642.668,329.0938,638.668,325.0938" style="stroke:#181818;stroke-width:1.0;"/><text fill="#000000" font-family="sans-serif" font-size="13" lengthAdjust="spacing" textLength="74.7627" x="644.668" y="307.0278">_comment_</text><path d="M11,335.0938 L75.4429,335.0938 L75.4429,342.2266 L65.4429,352.2266 L11,352.2266 L11,335.0938 " fill="#EEEEEE" style="stroke:#000000;stroke-width:1.5;"/><rect fill="none" height="522.7969" style="stroke:#000000;stroke-width:1.5;" width="671.4761" x="11" y="335.0938"/><text fill="#000000" font-family="sans-serif" font-size="13" font-weight="bold" lengthAdjust="spacing" textLength="19.4429" x="26" y="348.1606">alt</text><text fill="#000000" font-family="sans-serif" font-size="11" font-weight="bold" lengthAdjust="spacing" textLength="46.8037" x="90.4429" y="347.3042">[entity]</text><polygon fill="#181818" points="261.9585,369.3594,271.9585,373.3594,261.9585,377.3594,265.9585,373.3594" style="stroke:#181818;stroke-width:1.0;"/><line style="stroke:#181818;stroke-width:1.0;" x1="129.9604" x2="267.9585" y1="373.3594" y2="373.3594"/><text fill="#000000" font-family="sans-serif" font-size="13" lengthAdjust="spacing" textLength="18.6367" x="136.9604" y="368.2935">sql</text><polygon fill="#181818" points="140.9604,398.4922,130.9604,402.4922,140.9604,406.4922,136.9604,402.4922" style="stroke:#181818;stroke-width:1.0;"/><line style="stroke:#181818;stroke-width:1.0;stroke-dasharray:2.0,2.0;" x1="134.9604" x2="277.9585" y1="402.4922" y2="402.4922"/><text fill="#000000" font-family="sans-serif" font-size="13" lengthAdjust="spacing" textLength="59.3315" x="146.9604" y="397.4263">response</text><polygon fill="#181818" points="189.46,427.625,199.46,431.625,189.46,435.625,193.46,431.625" style="stroke:#181818;stroke-width:1.0;"/><line style="stroke:#181818;stroke-width:1.0;" x1="129.9604" x2="195.46" y1="431.625" y2="431.625"/><text fill="#000000" font-family="sans-serif" font-size="13" lengthAdjust="spacing" textLength="30.4307" x="136.9604" y="426.5591">save</text><line style="stroke:#181818;stroke-width:1.0;stroke-dasharray:2.0,2.0;" x1="211.46" x2="253.46" y1="465.7578" y2="465.7578"/><line style="stroke:#181818;stroke-width:1.0;stroke-dasharray:2.0,2.0;" x1="253.46" x2="253.46" y1="465.7578" y2="478.7578"/><line style="stroke:#181818;stroke-width:1.0;stroke-dasharray:2.0,2.0;" x1="206.46" x2="253.46" y1="478.7578" y2="478.7578"/><polygon fill="#181818" points="216.46,474.7578,206.46,478.7578,216.46,482.7578,212.46,478.7578" style="stroke:#181818;stroke-width:1.0;"/><text fill="#000000" font-family="sans-serif" font-size="13" lengthAdjust="spacing" textLength="38.4985" x="218.46" y="460.6919">cache</text><polygon fill="#181818" points="55.2651,498.8906,45.2651,502.8906,55.2651,506.8906,51.2651,502.8906" style="stroke:#181818;stroke-width:1.0;"/><line style="stroke:#181818;stroke-width:1.0;stroke-dasharray:2.0,2.0;" x1="49.2651" x2="123.9604" y1="502.8906" y2="502.8906"/><text fill="#000000" font-family="sans-serif" font-size="13" lengthAdjust="spacing" textLength="51.6953" x="61.2651" y="497.8247">2xx/4xx</text><line style="stroke:#000000;stroke-width:1.0;stroke-dasharray:2.0,2.0;" x1="11" x2="682.4761" y1="511.8906" y2="511.8906"/><text fill="#000000" font-family="sans-serif" font-size="11" font-weight="bold" lengthAdjust="spacing" textLength="78.606" x="16" y="522.1011">[_comment_]</text><polygon fill="#181818" points="340.4253,542.8281,350.4253,546.8281,340.4253,550.8281,344.4253,546.8281" style="stroke:#181818;stroke-width:1.0;"/><line style="stroke:#181818;stroke-width:1.0;" x1="129.9604" x2="346.4253" y1="546.8281" y2="546.8281"/><text fill="#000000" font-family="sans-serif" font-size="13" lengthAdjust="spacing" textLength="86.5757" x="136.9604" y="541.7622">Send request</text><polygon fill="#181818" points="521.9727,571.9609,531.9727,575.9609,521.9727,579.9609,525.9727,575.9609" style="stroke:#181818;stroke-width:1.0;"/><line style="stroke:#181818;stroke-width:1.0;" x1="357.4253" x2="527.9727" y1="575.9609" y2="575.9609"/><text fill="#000000" font-family="sans-serif" font-size="13" lengthAdjust="spacing" textLength="87.0835" x="364.4253" y="570.895">Read request</text><polygon fill="#181818" points="615.668,601.0938,625.668,605.0938,615.668,609.0938,619.668,605.0938" style="stroke:#181818;stroke-width:1.0;"/><line style="stroke:#181818;stroke-width:1.0;" x1="543.9727" x2="621.668" y1="605.0938" y2="605.0938"/><text fill="#000000" font-family="sans-serif" font-size="13" lengthAdjust="spacing" textLength="64.6953" x="550.9727" y="600.0278">Operation</text><line style="stroke:#181818;stroke-width:1.0;" x1="129.9604" x2="171.9604" y1="634.2266" y2="634.2266"/><line style="stroke:#181818;stroke-width:1.0;" x1="171.9604" x2="171.9604" y1="634.2266" y2="647.2266"/><line style="stroke:#181818;stroke-width:1.0;" x1="130.9604" x2="171.9604" y1="647.2266" y2="647.2266"/><polygon fill="#181818" points="140.9604,643.2266,130.9604,647.2266,140.9604,651.2266,136.9604,647.2266" style="stroke:#181818;stroke-width:1.0;"/><text fill="#000000" font-family="sans-serif" font-size="13" lengthAdjust="spacing" textLength="47.4995" x="136.9604" y="629.1606">max 1s</text><polygon fill="#181818" points="554.9727,657.2266,544.9727,661.2266,554.9727,665.2266,550.9727,661.2266" style="stroke:#181818;stroke-width:1.0;"/><line style="stroke:#181818;stroke-width:1.0;stroke-dasharray:2.0,2.0;" x1="548.9727" x2="631.668" y1="661.2266" y2="661.2266"/><polygon fill="#181818" points="460.208,686.3594,450.208,690.3594,460.208,694.3594,456.208,690.3594" style="stroke:#181818;stroke-width:1.0;"/><line style="stroke:#181818;stroke-width:1.0;" x1="454.208" x2="532.9727" y1="690.3594" y2="690.3594"/><text fill="#000000" font-family="sans-serif" font-size="13" lengthAdjust="spacing" textLength="59.3315" x="466.208" y="685.2935">response</text><polygon fill="#181818" points="140.9604,745.4922,130.9604,749.4922,140.9604,753.4922,136.9604,749.4922" style="stroke:#181818;stroke-width:1.0;"/><line style="stroke:#181818;stroke-width:1.0;" x1="134.9604" x2="443.208" y1="749.4922" y2="749.4922"/><text fill="#000000" font-family="sans-serif" font-size="13" lengthAdjust="spacing" textLength="59.3315" x="146.9604" y="744.4263">response</text><polygon fill="#181818" points="189.46,774.625,199.46,778.625,189.46,782.625,193.46,778.625" style="stroke:#181818;stroke-width:1.0;"/><line style="stroke:#181818;stroke-width:1.0;" x1="129.9604" x2="195.46" y1="778.625" y2="778.625"/><text fill="#000000" font-family="sans-serif" font-size="13" lengthAdjust="spacing" textLength="30.4307" x="136.9604" y="773.5591">save</text><line style="stroke:#181818;stroke-width:1.0;stroke-dasharray:2.0,2.0;" x1="211.46" x2="253.46" y1="812.7578" y2="812.7578"/><line style="stroke:#181818;stroke-width:1.0;stroke-dasharray:2.0,2.0;" x1="253.46" x2="253.46" y1="812.7578" y2="825.7578"/><line style="stroke:#181818;stroke-width:1.0;stroke-dasharray:2.0,2.0;" x1="206.46" x2="253.46" y1="825.7578" y2="825.7578"/><polygon fill="#181818" points="216.46,821.7578,206.46,825.7578,216.46,829.7578,212.46,825.7578" style="stroke:#181818;stroke-width:1.0;"/><text fill="#000000" font-family="sans-serif" font-size="13" lengthAdjust="spacing" textLength="38.4985" x="218.46" y="807.6919">cache</text><polygon fill="#181818" points="55.2651,845.8906,45.2651,849.8906,55.2651,853.8906,51.2651,849.8906" style="stroke:#181818;stroke-width:1.0;"/><line style="stroke:#181818;stroke-width:1.0;stroke-dasharray:2.0,2.0;" x1="49.2651" x2="123.9604" y1="849.8906" y2="849.8906"/><text fill="#000000" font-family="sans-serif" font-size="13" lengthAdjust="spacing" textLength="51.6953" x="61.2651" y="844.8247">2xx/4xx</text><path d="M5,869.8906 L5,909.8906 L274,909.8906 L274,879.8906 L264,869.8906 L5,869.8906 " fill="#FEFFDD" style="stroke:#181818;stroke-width:0.5;"/><path d="M264,869.8906 L264,879.8906 L274,879.8906 L264,869.8906 " fill="#FEFFDD" style="stroke:#181818;stroke-width:0.5;"/><text fill="#000000" font-family="sans-serif" font-size="13" lengthAdjust="spacing" textLength="171.5264" x="11" y="886.9575">_Author_ must contain the</text><text fill="#000000" font-family="sans-serif" font-size="13" font-weight="bold" lengthAdjust="spacing" textLength="72.7695" x="186.6587" y="886.9575">lastname:</text><text fill="#FF0000" font-family="sans-serif" font-size="13" font-weight="bold" lengthAdjust="spacing" textLength="82.1958" x="11" y="902.0903">_lastName_</text><!--SRC=[ZLHDZvmm3BtpAwpjRKPerAedD4MgvhHQgLkrlIC3PYSg96mIjhF_lkOpP0SGkK3myukV_GXcLccub8Aa3MhKLcIYHccXRj9Ic2lf85Ktk61sfI17YoaQWb-K2nEGp863xlDFPUoB9jEbF67n5uFNXXg2H_b7rI8RTi-DxRSZmVnS9iuQOuIIZlU2ng3CDGP1Noc4iIim0arCR6m0l32puWqjkJXyuff8Tj5skG2pT4gEnm7ZKxMhYqCuFoyCbwa6aKmMGLFdRGsYW2HJLSKb9rFIW6jJd5XOPcLChpY2BxTRXyZfNkAKEeLcRHnZyyDYrzD9l0FI5isKs5StxiAGPJknGJ-CqW9lXNrVRjbe69XDmBoMzt9cmtodibJ_9eWcssZ93rChQMZVb0s-aJzYrZ8yewpp-jOm-BMRn-dhC1CgsQNtarwrn-_M-H-jjYPOK-vXLZt48nYw4x4eN3vXZrC-hXNdkAcnfEUQDDej5gyRix-tmXjyDgjflj_cQdVMErutnsDqRnClZVOqPQG3_qxOuDvlnVjRPp0bDzYtvUOzCVboGPb_Px0FWmaf5STBAYoemjtbSvxaUsElIYTGDSP2fgH58S5U2Gw74esLM55qE7WvvpG-5unaUAdqjmUsyqESjEWVZ4xEfpOOdqzfFAMrVqTRp7y0]--></g></svg>