<?xml version="1.0" encoding="utf-8"?>
<!-- Generator: Adobe Illustrator 23.0.2, SVG Export Plug-In . SVG Version: 6.00 Build 0)  -->
<svg version="1.1" id="Layer_1" xmlns="http://www.w3.org/2000/svg" xmlns:xlink="http://www.w3.org/1999/xlink" x="0px" y="0px"
	 viewBox="0 0 500 500" style="enable-background:new 0 0 500 500;" xml:space="preserve">
<style type="text/css">
	.st0{fill:#231F20;}
	.st1{fill:#65C8D0;}
	.st2{fill:#FCEE21;}
</style>
<g>
	<path class="st0" d="M468.9,207.3c-2-7.3-4.4-9-7-14.2c-2.5-5-2.2-5.3-3.6-6.2c-1.2-0.7-16.4-6-16.9,0.2c-0.2,2.1-14.2,3.8-23.2,1
		c-10.6-2.4-9.3-1.9-9.4-2.7c0.1-1.9-0.8-3.4-2.1-4.3c0.3-5.6,1-11.6,2.8-17c8.4,3,21.5,5.5,28.7,0.2c17.4-12.8-17.7-35.7-30.3-3.9
		c-15.9-5.9-54.8-34.9-96-5.8c-33.4,23.6-37.6,82.1-55.4,86.5c-4,0.9-6.4-5.6-9.9-12c-6.8-12.4-6.2-10.1-3.8-11.9
		c33.1-23.2,11.1-54.7-13-2.7c-2.3-15.7-2.6-15.3-1.2-15.8c9.2-3.4,23.9-16.2,32.9-40c12.5-33.2-16.6-44-33.9-11.4
		c-16.7,30.9-11.8,55.8-13.3,58.5c-15.2,27.9-34.5,38.9-27.9,8.1c0.8-3.8,11.7-36.7,13.3-25.2c1.1,7.9,8.8,5,5.5-2.2
		c-6.6-14.5-28.5-5.6-31.5,29.6c-2,4.9-9.2,19.3-14.1,17.2c-2.9-1.2-0.7-29.1,2.5-40.7c0.6-2.2-2.5-3.6-4.7-4.1
		c-0.9-0.1-11.9-13.7-24.4,8.2c-5.2,9-13.8,19.8-14,19.4c-1.2-2.4-5.9-6.6-6.5-7.1c-14-9.7-19.3-4-16-8.4
		c0.3-0.3,17.8-20.8,12.9-39.4c-10.5-39.5-63.9-15.9-66.4,19.6c-0.4,6.4,0.8,13.5,0.9,16.3c0.1,5.8,9.1,9.4,6.6,0.8
		c-0.9-3.2-0.4-9.8-0.5-11.9c0-26.7,26.9-44,41.1-38.3c16.5,6.8,4,50.3-13,56.6c0.1-1.5,1.1-23.2,1.2-25.6c0-2.4,1.2-4.7-1-7.1
		c-2.2-2.2-7.3-4.4-9.5-2.3c-2,1.8-1.3,6-1.3,8.5c0,27.9-3.1,59.3,3.6,62.7c4.6,2.5,11.2,1.5,8.4-6.4c-1.9-5.3,0.1-7.1-1.7-19.8
		c0-1,0.1-0.2,0-2.4c8.4-1.8,12-6.7,23.3-1c3.4,1.8,8.3,7,9.4,11.2c0.5,1.8,1.7,2.2-2.4,5c-1.2,0.7-1.8,2-4.3,3.7
		c-31,21.3-25.4,42.9-4.7,42.9c18.5,0,27.7-25.6,23.8-46.5c0-0.1-0.4-4.6-0.8-4.2c0.1-0.1,0.7-0.7,0.6-0.6c5.8-5.7,2.6-6.1,4.3,1.4
		c1.1,4.8,10.8,15.5,20.6-6.6c-3.4,23.4,12.1,33.4,26.5,8.1c2.8,13.6,16.9,21.5,30.3,4.5c17.7-22.8,5.2-25.4,17.7,5.5
		c2.9,6.7,10.2,5.4,9.6-2.1c-0.4-4,1.8-11,2.1-9.9c1.6,10.4,9.8,25,20.9,24.6c16.8-0.7,25.6-43.9,41.4-70
		c16.3-26.9,46.6-38.3,76.9-29c11.7,3.6,22.4,9.8,33.8,14.3c-1.8,5.6-2.7,11.5-3,17.4c-2.1,0.3-3.6,2.4-4.1,3.5
		c-11.9-2.7-17.1-3-25.1-8.4c-4.5-3-5.3-3.2-4.8-4.5c0.6-1.6,0-3.6-2.2-4.3c-15-5.1-13.2-3.5-18.9,1c-4.6,3.6-7.5,4-12.4,9.8
		c-12,14.1-37.8,63.3-31.2,86c7.4,25.4,42.9-24.6,44.9-21.2c5.7,9.9,18.6,13.8,29.3-1.9c1.2-1.8,1.6,2.4,17.3,4.4
		c10.1,1.3,4.5-2.7,7.7,7.2c3,9.5,13.8,15.3,24.5,7.9c1.2-0.9,0.6-0.8,4.6,10.4c9.6,26.6,12.3,31.8,20.1,31.5
		C473.8,301,475.8,232.6,468.9,207.3z M421.6,148.6c20-8.7,30.2,24.5-11,12.7C412.8,155.9,416.1,151,421.6,148.6z M112.3,241.2
		c0,0.1-1,7.9-1.7,9.7c-10.3,30.2-36.2,15-1-16.4C112.9,231.5,112.2,229.9,112.3,241.2z M150.6,196.2c-5.2,11.9-8.6,17.9-12.5,24.4
		c1.7-5.8,4.2-17.9,11.3-27.7C151.5,194.3,151.5,194.4,150.6,196.2z M227.5,194.5c-1-8,2.7-61,24.1-61c17.2,0,1.8,45.1-21,59.4
		C230.4,193,227.5,194.7,227.5,194.5z M253.1,192.4c0.5,6.6-9.3,13.7-13.4,17.1C242.8,202.7,249.3,194.5,253.1,192.4z"/>
	<path class="st0" d="M42.7,127.7c13.4-4.5,17.1-21.6,11.4-33.1c-2.8-5.6-1.9-3-21.5,2.9c-2.1,0.6-2.6,2-0.1,9.4
		c1.8,5.2,14.5-6.2,10,4.6c-7.4,17.7-29.3-10.4-21.3-26c6.9-13.3,17-3.1,17.8-3.3c0.8-0.3,4.4-4.8,5.9-6.3c2.2-2.1,2.2-2.4-1.5-5
		c-22.6-16.3-56.4,18.7-26.9,50C20,124.5,31.4,131.5,42.7,127.7z"/>
	<path class="st0" d="M66.5,118.3c0.2,0.8,0.8,0.8,1.8,0.5c7.5-2.6,12.9-3.6,13.1-4.1c0.4-0.9-0.8-14.5,1.2-15.5
		c1.6-0.7,16.5-4.1,16.6-4.1c1.6-0.2,2.3,1,3.9,3.6c8,12.8,5.1,9.7,18.4,7c2.8-0.6,1.1-2.2-1.3-5.4c-5.6-7.2-9.7-15.5-14.2-21.7
		c-21.3-29.7-13.6-28.7-28.6-25c-2.4,0.6-3.7,1.2-3.9,1.9C69.8,66.8,66,102.2,66.5,118.3z M82.4,87.1c0.4-2.6,0.6-17.7,3.8-12.7
		c9.6,14.3,10.9,10.3-2.9,14.1C82.2,88.8,82.2,88.3,82.4,87.1z"/>
	<path class="st0" d="M124.8,77.4c5.5,31,1.9,27.1,14.6,24.9c2.2-0.4,1.8-2.3,1.5-4.4c-4.1-35.2-6.1-27.2,9.8-9.2
		c1.2,1.3,1.9,1.7,3.6,1.4c4.9-0.7,7-0.8,8.2-1.4c1.5-0.8,7-22.5,8.5-23c4.2-1.4,3.2,26.8,5.8,30.4c0.9,1.3,2.6,0.8,8.7,0.2
		c2.2-0.2,3-1,2.7-3.9c-5.9-63.6,0.7-57.3-14.2-55.8c-2.8,0.3-3.7,0.1-10.3,16.7c-8.8,22.6-8.5,21.3-16.6,9.7
		c-15.9-22.7-11.2-21.4-20.2-19.8C115.7,45.1,118.2,41.7,124.8,77.4z"/>
	<path class="st0" d="M202.4,60.8c0,1,1.3,28.9,1.3,29c0.3,4.1,0.3,4.8,1.5,4.8c5.2,0,37.5-1.4,37.6-1.4c2-0.2,2.2-0.4,2.1-7.3
		c0-2.3-0.2-3.3-5.5-3.2c-22.2,0.3-22.9,0.7-23.9,0c-1.4-1-1-10.6-0.7-11.3c0.9-2.4,18.3-0.4,20.5-1.9c1.2-0.9,0.9-3.4,0.8-7
		c-0.2-2.6,0.2-4-1.1-4.2c-3.7-0.6-18.6,1.3-20.3-0.1c-1.4-1.1-1-12.5-0.4-13.4c0.9-1.3,4.6-1.3,7.2-1.4c26.4-0.7,24.7,1.7,24.7-6.8
		c0-4.4,2.5-5.3-42.2-2.5C199.4,34.3,202.3,35.9,202.4,60.8z"/>
	<path class="st0" d="M280.5,83.4c7,12.8,23.9,17.7,34.6,8.9c10.7-8.7,17.9-39.6,3.2-52.2C292.7,18.1,266.7,58.6,280.5,83.4z
		 M291.1,65.2c1-15.2,10.1-20.1,15.1-17.3c11.3,6.3,7.5,29.5,0.2,34.6C302.1,85.4,289.8,85.5,291.1,65.2z"/>
	<path class="st0" d="M338.9,61.2c9.7,42.6,4.4,39.9,16,40.7c6.9,0.5,3.3,0.8,16.7-23.1c17.2-30.6,22.2-31.4,16.1-32.6
		c-10.9-2.2-11.1-1.9-12.4,0.6c-3.3,6.2-7.6,11.8-13.1,21.8c-6.7,12.3-6,17.1-9.6-5.1c-1.3-8.2-4.9-23.5-5.6-23.9
		c-0.4-0.2-0.3-0.1-3.6-0.5C332.2,37.5,332.6,33.6,338.9,61.2z"/>
	<path class="st0" d="M385.4,107.8c4.8,1.4,36.7,9,36.8,9c2,0.4,2.2,0.3,4.1-6.4c0.6-2.2,0.7-3.2-4.4-4.6
		c-21.6-5.9-22.4-5.6-23.2-6.6c-1.1-1.3,2-10.4,2.5-11.1c0.7-0.9,1.9-0.6,3.4-0.2c19.3,4.8,17.1,6.9,19.6-2.6c1-5.3,3.5-3.7-14.4-8
		c-1.4-0.3-4.5-1-5.2-2c-1-1.5,2.4-12.3,3.3-13c0.9-0.8,0.6-1.5,28.5,6.2c2.4,0.7,3.1,0.4,4.7-5.4c0.9-3.2,0.5-4-2.9-4.9
		c-40.8-11.1-39.9-10.4-40.7-7.1C384.8,107,383.3,107.2,385.4,107.8z"/>
	<path class="st0" d="M490.9,78.8c-4.1-5-7.8-6.7-31.5-14.1c-6.8-2.1-6.6-2.3-11.2,13c-13.8,46.1-14.6,42.3-8.7,44.1
		c8.8,2.7,6.8,3.2,9.5-3.8c6.4-16.4,3-19.5,12.9-14.6c2.5,1.2,1.5,16.2,3.3,25.6c0.3,1.4-0.1,1.1,10.6,5.1c3.4,1.3,3.6,1.2,1.8-11.1
		c-2.9-22.2-2.7-16.3,4.5-17.9C493.8,102.9,499.4,89.2,490.9,78.8z M481.3,90.4c-2.4,6.8-14.6,3.2-21.7,0.9c-1.2-0.4-1.4-0.7-0.9-2
		c4.1-12.6,4.4-11.4,12.8-8.5C476.4,82.4,483.1,85.5,481.3,90.4z"/>
	<path class="st0" d="M398.4,411.8c-24.7,45.2-47,37.9-47.9-2.8c-0.1-4.7,5.7-1.7,17.8-12.2c23.6-20.3,32.3-45.4,24.4-58.4
		c-10.7-17.5-52.1,2.9-53.8,68.8c-4.6,4.2-9.5,6.1-13.3,7.4c-0.6,0.2,1.6-30.6-22.1-25.1c-10.1,2.4-14.2,13.8-10.2,20.3
		c0.8,1.3-7.5,4.3-9,4.8c-0.2-6.4-1.2-14.8-5-19.9c-9.3-12.2-37.8-4.3-25,18.9c-2.6,18-19.2,38.4-22.9,39.1
		c-2.9-14.4,3.8-44.6-5.6-47.5c-4.3-1.3-7.2,2.2-9.6,5.3c-12.8,16-10.6,27.2-9-3.5c0.1-1.2,6.8-5.2,11-9.8
		c30.5-33.9,26.8-64.9,7.9-57.4c-19.6,7.7-34.1,46.4-34.8,71.3c-0.2,5.2,1.5,2.5-8.6,16.5c-18.4,25.3-29.8,13.1-10.5-29
		c6-13,3.2,1.7,8.3,2.1c5.2,0,3.5-6.5,0-11.1c-2.9-3.6-13.1-5.1-19.8,5c-12.1,18.3,3.2,4.1-15.6,19c-3.7,3-8.3,6.6-9.6,7
		c-9.9-12.7-31.6-27.7-18-50.9c8.2-14,21.7-18.2,25.5-15.2c6.9,5.4,9.7,0.9,9.4-0.3c-2.5-8.7-30.5-22.9-49.2,8.2
		c-12.5,20.4,3.8,38.7,19.7,55.8c8.1,8.8,5.4,5.6-1,12c-36.6,35.4,14.1,51.8,22.9,22.2c3.8-12.9-2.6-20.9-4-25
		c6.2-4.5,6.6-4.5,10.6-8c-2.1,11.1,0,23.3,10.1,27.4c13.7,5.6,22.9-11.2,30.4-24c0.6,6.2,2.3,16.9,5,23.2c1.7,3.8,7.9,4.4,9.4-0.5
		c4-10.1,2.7-11.5,14.2-29.5c-0.7,5.7-2.1,13.1-1.4,23.8c0.7,10,6.2,22.8,14.9,18c6.8-3.8,16.8-22,20.6-28.9
		c2,6.7,8.3,11.3,14.8,10.4c7.9-1,13.9-11.4,14.6-18.1c0.4-1.4,2.2-0.6,7.4-3.3c8-4,0.3-2.8,4.3,10.8c2,6.8,8.3,11.4,14.9,10.5
		c7.7-1,13.9-11.1,14.6-18.1c0.5-1.8,3.8-0.1,13.9-7.1c1.9,38.8,35.6,57.8,61.9,0.4C403.3,408.8,399.4,408.9,398.4,411.8z
		 M382.7,337.2c14.6,0,11.9,43.2-31.4,65.6C348.8,404.1,356.6,337.2,382.7,337.2z M231.7,344.6c8.7,0-0.4,35.7-23.6,55.9
		C206.2,402.2,216.7,344.6,231.7,344.6z M132.8,442.2c-1.6,10.7-1.9,9.7-4.1,13.7c-2,3.6-8.3,6-9,4.8
		C112.2,447.8,136.5,419.2,132.8,442.2z M275.1,421.3c-7,15.9-12.1,14.4-11.1-0.5c1-0.6,5,0.8,9.5,0.5
		C273.7,421.3,275.1,421.2,275.1,421.3z M277.3,416c-0.4,1.4-9.8,0.2-11.2,0c-1.2-0.2-1.4,0,1.1-5.5c3.9-8.8-3.9-15.2-9.3-6.8
		C256.2,388.5,284.1,387.5,277.3,416z M316.4,421.3c-7.1,16.3-12.1,14.1-11.1-0.5c1-0.6,5,0.8,9.5,0.5
		C315,421.3,316.4,421.2,316.4,421.3z M318.5,416c-0.4,1.4-9.8,0.2-11.2,0c-1.2-0.2-1.4,0,1.1-5.5c3.9-8.8-3.9-15.2-9.3-6.8
		C297.5,388.3,325.3,387.7,318.5,416z"/>
	<path class="st1" d="M464.9,203.5C464.9,203.5,464.9,203.5,464.9,203.5C465,203.6,465.1,203.6,464.9,203.5z"/>
	<path class="st0" d="M346.5,179.7C346.5,179.7,346.5,179.7,346.5,179.7C346.4,179.7,346.4,179.7,346.5,179.7z"/>
	<g>
		<path class="st0" d="M251.2,275.2c-0.8-0.2-43.3-0.8-43.6,1.2c-0.1,0.8-0.5,7,0.7,7.5c1.3,0.4,15.1-0.1,15.8,0.8
			c0.7,0.8-0.6,40.6,0,42.4c0.3,1,0.5,0.7,7.4,0.7c3.8,0,3,0.3,3-6.7c0-0.2,0.2-35.5,1.1-36.5c0.6-0.6,1.6-0.5,12.8-0.5
			c3.4,0,4-0.4,3.8-7C252.4,276.1,252,275.4,251.2,275.2z"/>
		<path class="st0" d="M284,278.6c-19.7-15.3-37.4,13.2-29.5,36.9c5.5,16.2,38,25.2,38-15.8C292.5,290,289.6,283,284,278.6z
			 M277.5,316.3c-4,3.4-13.7,2.8-13.7-14c0-11.1,6-18.5,11.1-16C284.3,291,283.3,311.3,277.5,316.3z"/>
		<rect x="142.5" y="299.3" class="st0" width="65" height="6.5"/>
		<rect x="303.6" y="299.3" class="st0" width="65" height="6.5"/>
	</g>
</g>
<path class="st2" d="M372.1,231.1c-4.4,9-16.5-1-9.1-7.8C367.4,219.4,375.3,224.7,372.1,231.1z"/>
<path class="st2" d="M421.8,245.9c-10,3.1-10.4-11.8-1.9-11.8C427.5,234,427.9,244,421.8,245.9z"/>
<g>
	<path class="st2" d="M345.6,183.3c-12,8.1-9.1,26.4,6.1,26.9c5.3,0.2,10.3-2.6,13.1-7.1C373.1,189.4,357.1,175.5,345.6,183.3z"/>
	<path class="st2" d="M458.3,208.7c-7.1-12-27.5-6.3-25.8,9.7c0.7,6.5,5.4,11.7,11.9,13C457.4,234,464.9,219.8,458.3,208.7z"/>
</g>
</svg>
