<svg xmlns="http://www.w3.org/2000/svg" xmlns:xlink="http://www.w3.org/1999/xlink" contentStyleType="text/css" height="489px" preserveAspectRatio="none" style="width:838px;height:489px;background:#FFFFFF;" version="1.1" viewBox="0 0 838 489" width="838px" zoomAndPan="magnify"><defs/><g><!--class _author_--><g id="elem__author_"><rect codeLine="7" fill="#F1F1F1" height="129.4844" id="_author_" rx="2.5" ry="2.5" style="stroke:#181818;stroke-width:0.5;" width="232.3086" x="302.78" y="7"/><ellipse cx="384.1174" cy="23" fill="#ADD1B2" rx="11" ry="11" style="stroke:#181818;stroke-width:1.0;"/><path d="M388.2268,29 L380.508,29 L380.508,16.6094 L388.2268,16.6094 L388.2268,18.7656 L382.9612,18.7656 L382.9612,21.4375 L387.7268,21.4375 L387.7268,23.5938 L382.9612,23.5938 L382.9612,26.8438 L388.2268,26.8438 L388.2268,29 Z " fill="#000000"/><text fill="#000000" font-family="sans-serif" font-size="14" lengthAdjust="spacing" textLength="61.1338" x="404.6174" y="27.8467">_Author_</text><line style="stroke:#181818;stroke-width:0.5;" x1="303.78" x2="534.0886" y1="39" y2="39"/><ellipse cx="313.78" cy="52.6484" fill="#000000" rx="3" ry="3" style="stroke:#000000;stroke-width:1.0;"/><text fill="#000000" font-family="sans-serif" font-size="14" lengthAdjust="spacing" textLength="160.2002" x="322.78" y="55.9951">id : bigint &#171;generated&#187;</text><line style="stroke:#181818;stroke-width:1.0;" x1="303.78" x2="534.0886" y1="63.2969" y2="63.2969"/><ellipse cx="313.78" cy="76.9453" fill="#000000" rx="3" ry="3" style="stroke:#000000;stroke-width:1.0;"/><text fill="#000000" font-family="sans-serif" font-size="14" lengthAdjust="spacing" textLength="169.2441" x="322.78" y="80.292">login : text (2..64 chars)</text><text fill="#000000" font-family="sans-serif" font-size="14" lengthAdjust="spacing" textLength="206.3086" x="322.78" y="96.5889">password: text (8..128 chars)</text><text fill="#000000" font-family="sans-serif" font-size="14" lengthAdjust="spacing" textLength="202.2002" x="322.78" y="112.8857">firstname : text (2..64 chars)</text><text fill="#000000" font-family="sans-serif" font-size="14" lengthAdjust="spacing" textLength="200.0947" x="322.78" y="129.1826">lastname : text (2..64 chars)</text></g><!--class _news_--><g id="elem__news_"><rect codeLine="16" fill="#F1F1F1" height="145.7813" id="_news_" rx="2.5" ry="2.5" style="stroke:#181818;stroke-width:0.5;" width="262.332" x="287.77" y="196.48"/><ellipse cx="388.771" cy="212.48" fill="#ADD1B2" rx="11" ry="11" style="stroke:#181818;stroke-width:1.0;"/><path d="M392.8804,218.48 L385.1616,218.48 L385.1616,206.0894 L392.8804,206.0894 L392.8804,208.2456 L387.6147,208.2456 L387.6147,210.9175 L392.3804,210.9175 L392.3804,213.0738 L387.6147,213.0738 L387.6147,216.3238 L392.8804,216.3238 L392.8804,218.48 Z " fill="#000000"/><text fill="#000000" font-family="sans-serif" font-size="14" lengthAdjust="spacing" textLength="51.8301" x="409.271" y="217.3267">_News_</text><line style="stroke:#181818;stroke-width:0.5;" x1="288.77" x2="549.102" y1="228.48" y2="228.48"/><ellipse cx="298.77" cy="242.1284" fill="#000000" rx="3" ry="3" style="stroke:#000000;stroke-width:1.0;"/><text fill="#000000" font-family="sans-serif" font-size="14" lengthAdjust="spacing" textLength="160.2002" x="307.77" y="245.4751">id : bigint &#171;generated&#187;</text><line style="stroke:#181818;stroke-width:1.0;" x1="288.77" x2="549.102" y1="252.7769" y2="252.7769"/><ellipse cx="298.77" cy="266.4253" fill="none" rx="3" ry="3" style="stroke:#038048;stroke-width:1.0;"/><text fill="#000000" font-family="sans-serif" font-size="14" lengthAdjust="spacing" textLength="165.498" x="307.77" y="269.772">_author_Id : bigint &#171;FK&#187;</text><ellipse cx="298.77" cy="282.7222" fill="#000000" rx="3" ry="3" style="stroke:#000000;stroke-width:1.0;"/><text fill="#000000" font-family="sans-serif" font-size="14" lengthAdjust="spacing" textLength="162.5107" x="307.77" y="286.0689">title : text (2..64 chars)</text><text fill="#000000" font-family="sans-serif" font-size="14" lengthAdjust="spacing" textLength="206.5547" x="307.77" y="302.3657">content : text (4..2048 chars)</text><text fill="#000000" font-family="sans-serif" font-size="14" lengthAdjust="spacing" textLength="228.6689" x="307.77" y="318.6626">created :  date+time (ISO_8601)</text><text fill="#000000" font-family="sans-serif" font-size="14" lengthAdjust="spacing" textLength="236.332" x="307.77" y="334.9595">modified :  date+time (ISO_8601)</text></g><!--class _comment_--><g id="elem__comment_"><rect codeLine="26" fill="#F1F1F1" height="96.8906" id="_comment_" rx="2.5" ry="2.5" style="stroke:#181818;stroke-width:0.5;" width="232.5547" x="20.66" y="220.93"/><ellipse cx="91.3914" cy="236.93" fill="#ADD1B2" rx="11" ry="11" style="stroke:#181818;stroke-width:1.0;"/><path d="M95.5008,242.93 L87.7821,242.93 L87.7821,230.5394 L95.5008,230.5394 L95.5008,232.6956 L90.2352,232.6956 L90.2352,235.3675 L95.0008,235.3675 L95.0008,237.5238 L90.2352,237.5238 L90.2352,240.7738 L95.5008,240.7738 L95.5008,242.93 Z " fill="#000000"/><text fill="#000000" font-family="sans-serif" font-size="14" lengthAdjust="spacing" textLength="82.5918" x="111.8914" y="241.7767">_Comment_</text><line style="stroke:#181818;stroke-width:0.5;" x1="21.66" x2="252.2147" y1="252.93" y2="252.93"/><ellipse cx="31.66" cy="266.5784" fill="#000000" rx="3" ry="3" style="stroke:#000000;stroke-width:1.0;"/><text fill="#000000" font-family="sans-serif" font-size="14" lengthAdjust="spacing" textLength="160.2002" x="40.66" y="269.9251">id : bigint &#171;generated&#187;</text><line style="stroke:#181818;stroke-width:1.0;" x1="21.66" x2="252.2147" y1="277.2269" y2="277.2269"/><ellipse cx="31.66" cy="290.8753" fill="none" rx="3" ry="3" style="stroke:#038048;stroke-width:1.0;"/><text fill="#000000" font-family="sans-serif" font-size="14" lengthAdjust="spacing" textLength="155.5928" x="40.66" y="294.222">_news_Id : bigint &#171;FK&#187;</text><text fill="#000000" font-family="sans-serif" font-size="14" lengthAdjust="spacing" textLength="206.5547" x="40.66" y="310.5189">content : text (2..2048 chars)</text></g><!--class _news__tag_--><g id="elem__news__tag_"><rect codeLine="33" fill="#F1F1F1" height="96.8906" id="_news__tag_" rx="2.5" ry="2.5" style="stroke:#181818;stroke-width:0.5;" width="186.2002" x="584.84" y="220.93"/><ellipse cx="627.8986" cy="236.93" fill="#F1F1F1" rx="11" ry="11" style="stroke:#181818;stroke-width:1.0;"/><path d="M627.383,237.4925 Q625.5236,236.7894 624.8674,236.0238 Q624.2268,235.2425 624.2268,233.93 Q624.2268,232.2425 625.3049,231.2738 Q626.383,230.305 628.258,230.305 Q629.1174,230.305 629.9611,230.5081 Q630.8205,230.6956 631.6643,231.0863 L631.6643,233.4769 Q630.883,232.9144 630.0549,232.6331 Q629.2424,232.3363 628.4455,232.3363 Q627.5705,232.3363 627.0861,232.6956 Q626.6174,233.055 626.6174,233.7113 Q626.6174,234.2269 626.9611,234.5706 Q627.3049,234.8988 628.3986,235.305 L629.4611,235.7113 Q630.9455,236.2581 631.6486,237.1644 Q632.3674,238.0706 632.3674,239.4456 Q632.3674,241.3206 631.258,242.2425 Q630.1486,243.1644 627.8986,243.1644 Q626.9768,243.1644 626.0549,242.9456 Q625.133,242.7269 624.2736,242.305 L624.2736,239.7738 Q625.2424,240.4613 626.1643,240.805 Q627.0861,241.1488 627.9768,241.1488 Q628.883,241.1488 629.383,240.7425 Q629.883,240.3206 629.883,239.5863 Q629.883,239.0238 629.5393,238.6175 Q629.2111,238.1956 628.5861,237.9456 L627.383,237.4925 Z " fill="#000000"/><text fill="#000000" font-family="sans-serif" font-size="14" lengthAdjust="spacing" textLength="91.8477" x="648.1339" y="241.7767">_News__Tag_</text><line style="stroke:#181818;stroke-width:0.5;" x1="585.84" x2="770.0402" y1="252.93" y2="252.93"/><ellipse cx="595.84" cy="266.5784" fill="#000000" rx="3" ry="3" style="stroke:#000000;stroke-width:1.0;"/><text fill="#000000" font-family="sans-serif" font-size="14" lengthAdjust="spacing" textLength="160.2002" x="604.84" y="269.9251">id : bigint &#171;generated&#187;</text><line style="stroke:#181818;stroke-width:1.0;" x1="585.84" x2="770.0402" y1="277.2269" y2="277.2269"/><ellipse cx="595.84" cy="290.8753" fill="none" rx="3" ry="3" style="stroke:#038048;stroke-width:1.0;"/><text fill="#000000" font-family="sans-serif" font-size="14" lengthAdjust="spacing" textLength="155.5928" x="604.84" y="294.222">_news_Id : bigint &#171;FK&#187;</text><ellipse cx="595.84" cy="307.1722" fill="none" rx="3" ry="3" style="stroke:#038048;stroke-width:1.0;"/><text fill="#000000" font-family="sans-serif" font-size="14" lengthAdjust="spacing" textLength="142.3174" x="604.84" y="310.5189">_tag_Id : bigint &#171;FK&#187;</text></g><!--class _tag_--><g id="elem__tag_"><rect codeLine="40" fill="#F1F1F1" height="80.5938" id="_tag_" rx="2.5" ry="2.5" style="stroke:#181818;stroke-width:0.5;" width="200.8428" x="447.52" y="402.27"/><ellipse cx="523.6826" cy="418.27" fill="#ADD1B2" rx="11" ry="11" style="stroke:#181818;stroke-width:1.0;"/><path d="M527.792,424.27 L520.0732,424.27 L520.0732,411.8794 L527.792,411.8794 L527.792,414.0356 L522.5263,414.0356 L522.5263,416.7075 L527.292,416.7075 L527.292,418.8638 L522.5263,418.8638 L522.5263,422.1138 L527.792,422.1138 L527.792,424.27 Z " fill="#000000"/><text fill="#000000" font-family="sans-serif" font-size="14" lengthAdjust="spacing" textLength="40.0176" x="544.1826" y="423.1167">_Tag_</text><line style="stroke:#181818;stroke-width:0.5;" x1="448.52" x2="647.3628" y1="434.27" y2="434.27"/><ellipse cx="458.52" cy="447.9184" fill="#000000" rx="3" ry="3" style="stroke:#000000;stroke-width:1.0;"/><text fill="#000000" font-family="sans-serif" font-size="14" lengthAdjust="spacing" textLength="160.2002" x="467.52" y="451.2651">id : bigint &#171;generated&#187;</text><line style="stroke:#181818;stroke-width:1.0;" x1="448.52" x2="647.3628" y1="458.5669" y2="458.5669"/><ellipse cx="458.52" cy="472.2153" fill="#000000" rx="3" ry="3" style="stroke:#000000;stroke-width:1.0;"/><text fill="#000000" font-family="sans-serif" font-size="14" lengthAdjust="spacing" textLength="174.8428" x="467.52" y="475.562">name : text (2..32 chars)</text></g><path d="M6,46.61 L6,86.8756 A0,0 0 0 0 6,86.8756 L267.8745,86.8756 A0,0 0 0 0 267.8745,86.8756 L267.8745,70.7428 L306.78,75.4453 L267.8745,62.7428 L267.8745,56.61 L257.8745,46.61 L6,46.61 A0,0 0 0 0 6,46.61 " fill="#FEFFDD" style="stroke:#181818;stroke-width:0.5;"/><path d="M257.8745,46.61 L257.8745,56.61 L267.8745,56.61 L257.8745,46.61 " fill="#FEFFDD" style="stroke:#181818;stroke-width:0.5;"/><text fill="#000000" font-family="sans-serif" font-size="13" lengthAdjust="spacing" textLength="240.8745" x="12" y="63.6769">The first entry is expected to contain</text><text fill="#000000" font-family="sans-serif" font-size="13" lengthAdjust="spacing" textLength="21.3345" x="12" y="78.8097">the</text><text fill="#000000" font-family="sans-serif" font-size="13" font-weight="bold" lengthAdjust="spacing" textLength="41.6025" x="37.4668" y="78.8097">login:</text><text fill="#000000" font-family="sans-serif" font-size="13" lengthAdjust="spacing" textLength="4.1323" x="79.0693" y="78.8097">&#160;</text><text fill="#FF0000" font-family="sans-serif" font-size="13" font-weight="bold" lengthAdjust="spacing" textLength="90.2065" x="83.2017" y="78.8097">_user.email_</text><path d="M570,21.48 L570,37.6128 L524.9802,108.0391 L570,45.6128 L570,61.7456 A0,0 0 0 0 570,61.7456 L831.8745,61.7456 A0,0 0 0 0 831.8745,61.7456 L831.8745,31.48 L821.8745,21.48 L570,21.48 A0,0 0 0 0 570,21.48 " fill="#FEFFDD" style="stroke:#181818;stroke-width:0.5;"/><path d="M821.8745,21.48 L821.8745,31.48 L831.8745,31.48 L821.8745,21.48 " fill="#FEFFDD" style="stroke:#181818;stroke-width:0.5;"/><text fill="#000000" font-family="sans-serif" font-size="13" lengthAdjust="spacing" textLength="240.8745" x="576" y="38.5469">The first entry is expected to contain</text><text fill="#000000" font-family="sans-serif" font-size="13" lengthAdjust="spacing" textLength="21.3345" x="576" y="53.6797">the</text><text fill="#000000" font-family="sans-serif" font-size="13" font-weight="bold" lengthAdjust="spacing" textLength="76.064" x="601.4668" y="53.6797">firstname:</text><text fill="#000000" font-family="sans-serif" font-size="13" lengthAdjust="spacing" textLength="4.1323" x="677.5308" y="53.6797">&#160;</text><text fill="#FF0000" font-family="sans-serif" font-size="13" font-weight="bold" lengthAdjust="spacing" textLength="85.4902" x="681.6631" y="53.6797">_firstName_</text><path d="M570,71.7456 L570,87.8784 L522.8747,124.3359 L570,95.8784 L570,112.0113 A0,0 0 0 0 570,112.0113 L831.8745,112.0113 A0,0 0 0 0 831.8745,112.0113 L831.8745,81.7456 L821.8745,71.7456 L570,71.7456 A0,0 0 0 0 570,71.7456 " fill="#FEFFDD" style="stroke:#181818;stroke-width:0.5;"/><path d="M821.8745,71.7456 L821.8745,81.7456 L831.8745,81.7456 L821.8745,71.7456 " fill="#FEFFDD" style="stroke:#181818;stroke-width:0.5;"/><text fill="#000000" font-family="sans-serif" font-size="13" lengthAdjust="spacing" textLength="240.8745" x="576" y="88.8125">The first entry is expected to contain</text><text fill="#000000" font-family="sans-serif" font-size="13" lengthAdjust="spacing" textLength="21.3345" x="576" y="103.9453">the</text><text fill="#000000" font-family="sans-serif" font-size="13" font-weight="bold" lengthAdjust="spacing" textLength="72.7695" x="601.4668" y="103.9453">lastname:</text><text fill="#000000" font-family="sans-serif" font-size="13" lengthAdjust="spacing" textLength="4.1323" x="674.2363" y="103.9453">&#160;</text><text fill="#FF0000" font-family="sans-serif" font-size="13" font-weight="bold" lengthAdjust="spacing" textLength="82.1958" x="678.3687" y="103.9453">_lastName_</text><!--link _author_ to _news_--><g id="link__author___news_"><path codeLine="61" d="M418.94,144.73 C418.94,163.74 418.94,158.66 418.94,178.14 " fill="none" id="_author_-_news_" style="stroke:#181818;stroke-width:1.0;"/><line style="stroke:#181818;stroke-width:1.0;" x1="414.94" x2="422.94" y1="140.73" y2="140.73"/><line style="stroke:#181818;stroke-width:1.0;" x1="414.94" x2="422.94" y1="143.73" y2="143.73"/><line style="stroke:#181818;stroke-width:1.0;" x1="418.94" x2="418.94" y1="144.73" y2="136.73"/><line style="stroke:#181818;stroke-width:1.0;" x1="418.94" x2="424.94" y1="188.14" y2="196.14"/><line style="stroke:#181818;stroke-width:1.0;" x1="418.94" x2="412.94" y1="188.14" y2="196.14"/><line style="stroke:#181818;stroke-width:1.0;" x1="418.94" x2="418.94" y1="188.14" y2="196.14"/><ellipse cx="418.94" cy="182.14" fill="none" rx="4" ry="4" style="stroke:#181818;stroke-width:1.0;"/></g><!--link _comment_ to _news_--><g id="link__comment___news_"><path codeLine="62" d="M271.67,269.86 C282.89,269.86 268.31,269.86 279.65,269.86 " fill="none" id="_comment_-_news_" style="stroke:#181818;stroke-width:1.0;"/><line style="stroke:#181818;stroke-width:1.0;" x1="261.67" x2="253.67" y1="269.86" y2="275.86"/><line style="stroke:#181818;stroke-width:1.0;" x1="261.67" x2="253.67" y1="269.86" y2="263.86"/><line style="stroke:#181818;stroke-width:1.0;" x1="261.67" x2="253.67" y1="269.86" y2="269.86"/><ellipse cx="267.67" cy="269.86" fill="none" rx="4" ry="4" style="stroke:#181818;stroke-width:1.0;"/><line style="stroke:#181818;stroke-width:1.0;" x1="283.65" x2="283.65" y1="265.86" y2="273.86"/><line style="stroke:#181818;stroke-width:1.0;" x1="280.65" x2="280.65" y1="265.86" y2="273.86"/><line style="stroke:#181818;stroke-width:1.0;" x1="279.65" x2="287.65" y1="269.86" y2="269.86"/></g><!--link _news_ to _news__tag_--><g id="link__news___news__tag_"><path codeLine="63" d="M558.33,269.86 C569.85,269.86 565.35,269.86 576.47,269.86 " fill="none" id="_news_-_news__tag_" style="stroke:#181818;stroke-width:1.0;"/><line style="stroke:#181818;stroke-width:1.0;" x1="554.33" x2="554.33" y1="273.86" y2="265.86"/><line style="stroke:#181818;stroke-width:1.0;" x1="557.33" x2="557.33" y1="273.86" y2="265.86"/><line style="stroke:#181818;stroke-width:1.0;" x1="558.33" x2="550.33" y1="269.86" y2="269.86"/><line style="stroke:#181818;stroke-width:1.0;" x1="576.47" x2="584.47" y1="269.86" y2="261.86"/><line style="stroke:#181818;stroke-width:1.0;" x1="576.47" x2="584.47" y1="269.86" y2="277.86"/><line style="stroke:#181818;stroke-width:1.0;" x1="576.47" x2="584.47" y1="269.86" y2="269.86"/></g><!--link _news__tag_ to _tag_--><g id="link__news__tag___tag_"><path codeLine="64" d="M616.6,326.08 C616.6,352.49 616.6,368.76 616.6,393.83 " fill="none" id="_news__tag_-_tag_" style="stroke:#181818;stroke-width:1.0;"/><line style="stroke:#181818;stroke-width:1.0;" x1="616.6" x2="608.6" y1="326.08" y2="318.08"/><line style="stroke:#181818;stroke-width:1.0;" x1="616.6" x2="624.6" y1="326.08" y2="318.08"/><line style="stroke:#181818;stroke-width:1.0;" x1="616.6" x2="616.6" y1="326.08" y2="318.08"/><line style="stroke:#181818;stroke-width:1.0;" x1="620.6" x2="612.6" y1="397.83" y2="397.83"/><line style="stroke:#181818;stroke-width:1.0;" x1="620.6" x2="612.6" y1="394.83" y2="394.83"/><line style="stroke:#181818;stroke-width:1.0;" x1="616.6" x2="616.6" y1="393.83" y2="401.83"/></g><!--link _news_ to _tag_--><g id="link__news___tag_"><path codeLine="65" d="M498.81,350.57 C498.81,370.88 498.81,376.2 498.81,393.91 " fill="none" id="_news_-_tag_" style="stroke:#181818;stroke-width:1.0;"/><line style="stroke:#181818;stroke-width:1.0;" x1="498.81" x2="490.81" y1="350.57" y2="342.57"/><line style="stroke:#181818;stroke-width:1.0;" x1="498.81" x2="506.81" y1="350.57" y2="342.57"/><line style="stroke:#181818;stroke-width:1.0;" x1="498.81" x2="498.81" y1="350.57" y2="342.57"/><line style="stroke:#181818;stroke-width:1.0;" x1="498.81" x2="506.81" y1="393.91" y2="401.91"/><line style="stroke:#181818;stroke-width:1.0;" x1="498.81" x2="490.81" y1="393.91" y2="401.91"/><line style="stroke:#181818;stroke-width:1.0;" x1="498.81" x2="498.81" y1="393.91" y2="401.91"/></g><!--SRC=[hLJRQjj047tNLmn-IMeZ9N5DC4OLb9P2A4qVcdSXMsjxgQGrgtKJOnkIbFQbfVqLuyJ1jBNx2wi_wgnkLaniR2W2iRFdpCmvgraTW5n4d-M3NCWbH3VobrpYSYfdqNLqA-VHDSPJEObke-yAdiiPo2c4dphQ0SWv9ik9UitadSg_HVQTl5TxVt2PLSNdc_oTLC7rJrNYtMjLOQAAOY_iCOzk05ENI7p0UWkGVp6uZxua_H5N6jO4JgAl2FpGjF0Z3NeETtpmQ434e4U0ST5bcaO2GSK0IlRBFiRSBe4JWkqa0GmrW39reG5Dsg610DFia81mHn3NiX3KTSNm68984kHAm67LC4vhqEewF7o6QCy9mql6tGok6yP9jRx2svI78d1yigc0vsp3nmKFv-GoJ1q4QhcZ_ahcz-mHyytRc5B6ujv6SIqM2EoVmpN3g1xN2lPQdAXkI00N5nL1qSdXsOVtTltq-4GnVERIDjr2ALfynNmVWzHbAursDXeVovCsrurK7nj13Q7W_PR8Zjc-S3h5ixO5nlz1HoKkz0HKF8LLxpswbjU7w7cru2vWWe17sW9OExy0ZKOysfWCSD4boQm2ok03e26GgnvfgOyhM7n-JaeLI2qdjw9HBeFPjCmsmiZn67zHuiGjMNO_9DmWlaCzspnIi6KUDItqw8BIaYhYjDDTavHV66rdJOcWF76pg9XoZfGzDMLtT5z9MTvcHOgnHL3-gngDT9qDqs7KLZTZpFJHADzEVWl87HR7LYkEy5YF4mhxk3LCDlu1]--></g></svg>