<svg xmlns="http://www.w3.org/2000/svg" xmlns:xlink="http://www.w3.org/1999/xlink" contentStyleType="text/css" data-diagram-type="CLASS" height="489px" preserveAspectRatio="none" style="width:838px;height:489px;background:#FFFFFF;" version="1.1" viewBox="0 0 838 489" width="838px" zoomAndPan="magnify"><defs/><g><!--class _author_--><g id="elem__author_"><rect codeLine="7" fill="#F1F1F1" height="129.4844" id="_author_" rx="2.5" ry="2.5" style="stroke:#181818;stroke-width:0.5;" width="232.3086" x="302.78" y="7"/><ellipse cx="384.1174" cy="23" fill="#ADD1B2" rx="11" ry="11" style="stroke:#181818;stroke-width:1;"/><path d="M388.2268,29 L380.508,29 L380.508,16.6094 L388.2268,16.6094 L388.2268,18.7656 L382.9612,18.7656 L382.9612,21.4375 L387.7268,21.4375 L387.7268,23.5938 L382.9612,23.5938 L382.9612,26.8438 L388.2268,26.8438 L388.2268,29 Z " fill="#000000"/><text fill="#000000" font-family="sans-serif" font-size="14" lengthAdjust="spacing" textLength="61.1338" x="404.6174" y="27.8467">_Author_</text><line style="stroke:#181818;stroke-width:0.5;" x1="303.78" x2="534.0886" y1="39" y2="39"/><ellipse cx="313.78" cy="52.6484" fill="#000000" rx="3" ry="3" style="stroke:#000000;stroke-width:1;"/><text fill="#000000" font-family="sans-serif" font-size="14" lengthAdjust="spacing" textLength="160.2002" x="322.78" y="55.9951">id : bigint &#171;generated&#187;</text><line style="stroke:#181818;stroke-width:1;" x1="303.78" x2="534.0886" y1="63.2969" y2="63.2969"/><ellipse cx="313.78" cy="76.9453" fill="#000000" rx="3" ry="3" style="stroke:#000000;stroke-width:1;"/><text fill="#000000" font-family="sans-serif" font-size="14" lengthAdjust="spacing" textLength="169.2441" x="322.78" y="80.292">login : text (2..64 chars)</text><text fill="#000000" font-family="sans-serif" font-size="14" lengthAdjust="spacing" textLength="206.3086" x="322.78" y="96.5889">password: text (8..128 chars)</text><text fill="#000000" font-family="sans-serif" font-size="14" lengthAdjust="spacing" textLength="202.2002" x="322.78" y="112.8857">firstname : text (2..64 chars)</text><text fill="#000000" font-family="sans-serif" font-size="14" lengthAdjust="spacing" textLength="200.0947" x="322.78" y="129.1826">lastname : text (2..64 chars)</text></g><!--class _news_--><g id="elem__news_"><rect codeLine="16" fill="#F1F1F1" height="145.7813" id="_news_" rx="2.5" ry="2.5" style="stroke:#181818;stroke-width:0.5;" width="262.332" x="287.77" y="196.48"/><ellipse cx="388.771" cy="212.48" fill="#ADD1B2" rx="11" ry="11" style="stroke:#181818;stroke-width:1;"/><path d="M392.8804,218.48 L385.1616,218.48 L385.1616,206.0894 L392.8804,206.0894 L392.8804,208.2456 L387.6147,208.2456 L387.6147,210.9175 L392.3804,210.9175 L392.3804,213.0738 L387.6147,213.0738 L387.6147,216.3238 L392.8804,216.3238 L392.8804,218.48 Z " fill="#000000"/><text fill="#000000" font-family="sans-serif" font-size="14" lengthAdjust="spacing" textLength="51.8301" x="409.271" y="217.3267">_News_</text><line style="stroke:#181818;stroke-width:0.5;" x1="288.77" x2="549.102" y1="228.48" y2="228.48"/><ellipse cx="298.77" cy="242.1284" fill="#000000" rx="3" ry="3" style="stroke:#000000;stroke-width:1;"/><text fill="#000000" font-family="sans-serif" font-size="14" lengthAdjust="spacing" textLength="160.2002" x="307.77" y="245.4751">id : bigint &#171;generated&#187;</text><line style="stroke:#181818;stroke-width:1;" x1="288.77" x2="549.102" y1="252.7769" y2="252.7769"/><ellipse cx="298.77" cy="266.4253" fill="none" rx="3" ry="3" style="stroke:#038048;stroke-width:1;"/><text fill="#000000" font-family="sans-serif" font-size="14" lengthAdjust="spacing" textLength="165.498" x="307.77" y="269.772">_author_Id : bigint &#171;FK&#187;</text><ellipse cx="298.77" cy="282.7222" fill="#000000" rx="3" ry="3" style="stroke:#000000;stroke-width:1;"/><text fill="#000000" font-family="sans-serif" font-size="14" lengthAdjust="spacing" textLength="162.5107" x="307.77" y="286.0689">title : text (2..64 chars)</text><text fill="#000000" font-family="sans-serif" font-size="14" lengthAdjust="spacing" textLength="206.5547" x="307.77" y="302.3657">content : text (4..2048 chars)</text><text fill="#000000" font-family="sans-serif" font-size="14" lengthAdjust="spacing" textLength="228.6689" x="307.77" y="318.6626">created :  date+time (ISO_8601)</text><text fill="#000000" font-family="sans-serif" font-size="14" lengthAdjust="spacing" textLength="236.332" x="307.77" y="334.9595">modified :  date+time (ISO_8601)</text></g><!--class _comment_--><g id="elem__comment_"><rect codeLine="26" fill="#F1F1F1" height="96.8906" id="_comment_" rx="2.5" ry="2.5" style="stroke:#181818;stroke-width:0.5;" width="232.5547" x="20.66" y="220.93"/><ellipse cx="91.3914" cy="236.93" fill="#ADD1B2" rx="11" ry="11" style="stroke:#181818;stroke-width:1;"/><path d="M95.5008,242.93 L87.7821,242.93 L87.7821,230.5394 L95.5008,230.5394 L95.5008,232.6956 L90.2352,232.6956 L90.2352,235.3675 L95.0008,235.3675 L95.0008,237.5238 L90.2352,237.5238 L90.2352,240.7738 L95.5008,240.7738 L95.5008,242.93 Z " fill="#000000"/><text fill="#000000" font-family="sans-serif" font-size="14" lengthAdjust="spacing" textLength="82.5918" x="111.8914" y="241.7767">_Comment_</text><line style="stroke:#181818;stroke-width:0.5;" x1="21.66" x2="252.2147" y1="252.93" y2="252.93"/><ellipse cx="31.66" cy="266.5784" fill="#000000" rx="3" ry="3" style="stroke:#000000;stroke-width:1;"/><text fill="#000000" font-family="sans-serif" font-size="14" lengthAdjust="spacing" textLength="160.2002" x="40.66" y="269.9251">id : bigint &#171;generated&#187;</text><line style="stroke:#181818;stroke-width:1;" x1="21.66" x2="252.2147" y1="277.2269" y2="277.2269"/><ellipse cx="31.66" cy="290.8753" fill="none" rx="3" ry="3" style="stroke:#038048;stroke-width:1;"/><text fill="#000000" font-family="sans-serif" font-size="14" lengthAdjust="spacing" textLength="155.5928" x="40.66" y="294.222">_news_Id : bigint &#171;FK&#187;</text><text fill="#000000" font-family="sans-serif" font-size="14" lengthAdjust="spacing" textLength="206.5547" x="40.66" y="310.5189">content : text (2..2048 chars)</text></g><!--class _tag_--><g id="elem__tag_"><rect codeLine="34" fill="#F1F1F1" height="80.5938" id="_tag_" rx="2.5" ry="2.5" style="stroke:#181818;stroke-width:0.5;" width="200.8428" x="318.52" y="402.27"/><ellipse cx="394.6826" cy="418.27" fill="#ADD1B2" rx="11" ry="11" style="stroke:#181818;stroke-width:1;"/><path d="M398.792,424.27 L391.0732,424.27 L391.0732,411.8794 L398.792,411.8794 L398.792,414.0356 L393.5263,414.0356 L393.5263,416.7075 L398.292,416.7075 L398.292,418.8638 L393.5263,418.8638 L393.5263,422.1138 L398.792,422.1138 L398.792,424.27 Z " fill="#000000"/><text fill="#000000" font-family="sans-serif" font-size="14" lengthAdjust="spacing" textLength="40.0176" x="415.1826" y="423.1167">_Tag_</text><line style="stroke:#181818;stroke-width:0.5;" x1="319.52" x2="518.3628" y1="434.27" y2="434.27"/><ellipse cx="329.52" cy="447.9184" fill="#000000" rx="3" ry="3" style="stroke:#000000;stroke-width:1;"/><text fill="#000000" font-family="sans-serif" font-size="14" lengthAdjust="spacing" textLength="160.2002" x="338.52" y="451.2651">id : bigint &#171;generated&#187;</text><line style="stroke:#181818;stroke-width:1;" x1="319.52" x2="518.3628" y1="458.5669" y2="458.5669"/><ellipse cx="329.52" cy="472.2153" fill="#000000" rx="3" ry="3" style="stroke:#000000;stroke-width:1;"/><text fill="#000000" font-family="sans-serif" font-size="14" lengthAdjust="spacing" textLength="174.8428" x="338.52" y="475.562">name : text (2..32 chars)</text></g><path d="M6,46.61 L6,86.8756 A0,0 0 0 0 6,86.8756 L267.8745,86.8756 A0,0 0 0 0 267.8745,86.8756 L267.8745,70.7428 L306.78,75.4453 L267.8745,62.7428 L267.8745,56.61 L257.8745,46.61 L6,46.61 A0,0 0 0 0 6,46.61 " fill="#FEFFDD" style="stroke:#181818;stroke-width:0.5;"/><path d="M257.8745,46.61 L257.8745,56.61 L267.8745,56.61 L257.8745,46.61 " fill="#FEFFDD" style="stroke:#181818;stroke-width:0.5;"/><text fill="#000000" font-family="sans-serif" font-size="13" lengthAdjust="spacing" textLength="240.8745" x="12" y="63.6769">The first entry is expected to contain</text><text fill="#000000" font-family="sans-serif" font-size="13" lengthAdjust="spacing" textLength="21.3345" x="12" y="78.8097">the</text><text fill="#000000" font-family="sans-serif" font-size="13" font-weight="bold" lengthAdjust="spacing" textLength="41.6025" x="37.4668" y="78.8097">login:</text><text fill="#000000" font-family="sans-serif" font-size="13" lengthAdjust="spacing" textLength="4.1323" x="79.0693" y="78.8097">&#160;</text><text fill="#FF0000" font-family="sans-serif" font-size="13" font-weight="bold" lengthAdjust="spacing" textLength="90.2065" x="83.2017" y="78.8097">_user.email_</text><path d="M570,21.48 L570,37.6128 L524.9802,108.0391 L570,45.6128 L570,61.7456 A0,0 0 0 0 570,61.7456 L831.8745,61.7456 A0,0 0 0 0 831.8745,61.7456 L831.8745,31.48 L821.8745,21.48 L570,21.48 A0,0 0 0 0 570,21.48 " fill="#FEFFDD" style="stroke:#181818;stroke-width:0.5;"/><path d="M821.8745,21.48 L821.8745,31.48 L831.8745,31.48 L821.8745,21.48 " fill="#FEFFDD" style="stroke:#181818;stroke-width:0.5;"/><text fill="#000000" font-family="sans-serif" font-size="13" lengthAdjust="spacing" textLength="240.8745" x="576" y="38.5469">The first entry is expected to contain</text><text fill="#000000" font-family="sans-serif" font-size="13" lengthAdjust="spacing" textLength="21.3345" x="576" y="53.6797">the</text><text fill="#000000" font-family="sans-serif" font-size="13" font-weight="bold" lengthAdjust="spacing" textLength="76.064" x="601.4668" y="53.6797">firstname:</text><text fill="#000000" font-family="sans-serif" font-size="13" lengthAdjust="spacing" textLength="4.1323" x="677.5308" y="53.6797">&#160;</text><text fill="#FF0000" font-family="sans-serif" font-size="13" font-weight="bold" lengthAdjust="spacing" textLength="85.4902" x="681.6631" y="53.6797">_firstName_</text><path d="M570,71.7456 L570,87.8784 L522.8747,124.3359 L570,95.8784 L570,112.0113 A0,0 0 0 0 570,112.0113 L831.8745,112.0113 A0,0 0 0 0 831.8745,112.0113 L831.8745,81.7456 L821.8745,71.7456 L570,71.7456 A0,0 0 0 0 570,71.7456 " fill="#FEFFDD" style="stroke:#181818;stroke-width:0.5;"/><path d="M821.8745,71.7456 L821.8745,81.7456 L831.8745,81.7456 L821.8745,71.7456 " fill="#FEFFDD" style="stroke:#181818;stroke-width:0.5;"/><text fill="#000000" font-family="sans-serif" font-size="13" lengthAdjust="spacing" textLength="240.8745" x="576" y="88.8125">The first entry is expected to contain</text><text fill="#000000" font-family="sans-serif" font-size="13" lengthAdjust="spacing" textLength="21.3345" x="576" y="103.9453">the</text><text fill="#000000" font-family="sans-serif" font-size="13" font-weight="bold" lengthAdjust="spacing" textLength="72.7695" x="601.4668" y="103.9453">lastname:</text><text fill="#000000" font-family="sans-serif" font-size="13" lengthAdjust="spacing" textLength="4.1323" x="674.2363" y="103.9453">&#160;</text><text fill="#FF0000" font-family="sans-serif" font-size="13" font-weight="bold" lengthAdjust="spacing" textLength="82.1958" x="678.3687" y="103.9453">_lastName_</text><!--link _author_ to _news_--><g id="link__author___news_"><path codeLine="40" d="M418.94,144.73 C418.94,163.74 418.94,158.66 418.94,178.14 " fill="none" id="_author_-_news_" style="stroke:#181818;stroke-width:1;"/><line style="stroke:#181818;stroke-width:1;" x1="414.94" x2="422.94" y1="140.73" y2="140.73"/><line style="stroke:#181818;stroke-width:1;" x1="414.94" x2="422.94" y1="143.73" y2="143.73"/><line style="stroke:#181818;stroke-width:1;" x1="418.94" x2="418.94" y1="144.73" y2="136.73"/><line style="stroke:#181818;stroke-width:1;" x1="418.94" x2="424.94" y1="188.14" y2="196.14"/><line style="stroke:#181818;stroke-width:1;" x1="418.94" x2="412.94" y1="188.14" y2="196.14"/><line style="stroke:#181818;stroke-width:1;" x1="418.94" x2="418.94" y1="188.14" y2="196.14"/><ellipse cx="418.94" cy="182.14" fill="none" rx="4" ry="4" style="stroke:#181818;stroke-width:1;"/></g><!--link _comment_ to _news_--><g id="link__comment___news_"><path codeLine="41" d="M271.67,269.86 C282.89,269.86 268.31,269.86 279.65,269.86 " fill="none" id="_comment_-_news_" style="stroke:#181818;stroke-width:1;"/><line style="stroke:#181818;stroke-width:1;" x1="261.67" x2="253.67" y1="269.86" y2="275.86"/><line style="stroke:#181818;stroke-width:1;" x1="261.67" x2="253.67" y1="269.86" y2="263.86"/><line style="stroke:#181818;stroke-width:1;" x1="261.67" x2="253.67" y1="269.86" y2="269.86"/><ellipse cx="267.67" cy="269.86" fill="none" rx="4" ry="4" style="stroke:#181818;stroke-width:1;"/><line style="stroke:#181818;stroke-width:1;" x1="283.65" x2="283.65" y1="265.86" y2="273.86"/><line style="stroke:#181818;stroke-width:1;" x1="280.65" x2="280.65" y1="265.86" y2="273.86"/><line style="stroke:#181818;stroke-width:1;" x1="279.65" x2="287.65" y1="269.86" y2="269.86"/></g><!--link _news_ to _tag_--><g id="link__news___tag_"><path codeLine="42" d="M418.94,350.57 C418.94,370.88 418.94,376.2 418.94,393.91 " fill="none" id="_news_-_tag_" style="stroke:#181818;stroke-width:1;"/><line style="stroke:#181818;stroke-width:1;" x1="418.94" x2="410.94" y1="350.57" y2="342.57"/><line style="stroke:#181818;stroke-width:1;" x1="418.94" x2="426.94" y1="350.57" y2="342.57"/><line style="stroke:#181818;stroke-width:1;" x1="418.94" x2="418.94" y1="350.57" y2="342.57"/><line style="stroke:#181818;stroke-width:1;" x1="418.94" x2="426.94" y1="393.91" y2="401.91"/><line style="stroke:#181818;stroke-width:1;" x1="418.94" x2="410.94" y1="393.91" y2="401.91"/><line style="stroke:#181818;stroke-width:1;" x1="418.94" x2="418.94" y1="393.91" y2="401.91"/></g><!--SRC=[bLFRQjj047tNLmn-IUeW9N5DC4OLb9P2A4qVcdUnjbRsKabhLficnZOaBkrBI_ihnec3QMlt5rP_r5dTx9WwE0Z4ZCwPcNDsHtkW5ibdTQyMQWd9ZVgbbXXErIovJiPgdbnZFbMJP9nyr_1SpK1D8VxKCVP0pR5OJVHhfcvr_HZPj-fEV_k3OT4Lds_gTzO5uv-wnRlNkiD4DyLPE6EUt02MBf5uZ_qMeFvYSfTyoUOZhZLi29maNn7uOHZnHnRrY20X12oYij-Zm8NiSiEWaMIo3nNtvGNcmgq0YS4bMG830w3AF6X2YtLO9C6sEpIYWaZgEGw2fgaP0KSGIP9UITYlMTP97TfT8k9dYFP875zouHLmmxAEQuqLxZCHouY4T5k3W3o6ZzOydD7BE7SGwN17_GU5tzC7p3TlKqeLcmTRnRLv975-2TSjgtPKNxFN5bHFGm9u61n8XaxsJp-yTnidHyUQ4NAF-UmHohh5LpmCCSbTjlDiPwFfiVpNvgQHsaCZg64bufnqSW4IerstPFCEdzVMcfShDnoQ9X_a5sYi78wuEHoMdxFh7Pdc8DE0weo8Ime1zILmlrpXPZDTJfmFSDwbsRO1TXHzO37Ggnvjw-kHF3q1abCbKglPNZUhLR1RZkqZZ9o0YnSLGRsAurx4L5Wq92nmxKCDE_PXoy5Zya1hoHK9rkbkI2fNtjXPKoQeBDmkAgMS8UM9ceg_xAcIYhhjYZHZgw1_]--></g></svg>