<svg xmlns="http://www.w3.org/2000/svg" xmlns:xlink="http://www.w3.org/1999/xlink" contentStyleType="text/css" data-diagram-type="SEQUENCE" height="1036px" preserveAspectRatio="none" style="width:677px;height:1036px;background:#FFFFFF;" version="1.1" viewBox="0 0 677 1036" width="677px" zoomAndPan="magnify"><defs/><g><rect fill="#DDDDDD" height="1024.8438" style="stroke:#181818;stroke-width:0.5;" width="171.5654" x="253.6636" y="6"/><text fill="#000000" font-family="sans-serif" font-size="13" font-weight="bold" lengthAdjust="spacing" textLength="40.4917" x="319.2004" y="18.0669">kafka</text><rect fill="#008000" height="187.9297" style="stroke:#181818;stroke-width:1;" width="10" x="177.3843" y="155.5625"/><rect fill="#FF0000" height="263.4609" style="stroke:#181818;stroke-width:1;" width="10" x="177.3843" y="610.6875"/><rect fill="#FF0000" height="71.2656" style="stroke:#181818;stroke-width:1;" width="10" x="495.4219" y="372.625"/><rect fill="#FFFF00" height="205.1953" style="stroke:#181818;stroke-width:1;" width="10" x="495.4219" y="639.8203"/><rect fill="#008000" height="116.6641" style="stroke:#181818;stroke-width:1;" width="10" x="620.7349" y="668.9531"/><line style="stroke:#181818;stroke-width:0.5;stroke-dasharray:5.0,5.0;" x1="48" x2="48" y1="81.2969" y2="951.5469"/><line style="stroke:#181818;stroke-width:0.5;stroke-dasharray:5.0,5.0;" x1="181.9033" x2="181.9033" y1="81.2969" y2="951.5469"/><line style="stroke:#181818;stroke-width:0.5;stroke-dasharray:5.0,5.0;" x1="292.6636" x2="292.6636" y1="81.2969" y2="951.5469"/><line style="stroke:#181818;stroke-width:0.5;stroke-dasharray:5.0,5.0;" x1="379.2563" x2="379.2563" y1="81.2969" y2="951.5469"/><line style="stroke:#181818;stroke-width:0.5;stroke-dasharray:5.0,5.0;" x1="500.1436" x2="500.1436" y1="81.2969" y2="951.5469"/><line style="stroke:#181818;stroke-width:0.5;stroke-dasharray:5.0,5.0;" x1="624.9268" x2="624.9268" y1="81.2969" y2="951.5469"/><text fill="#000000" font-family="sans-serif" font-size="14" lengthAdjust="spacing" textLength="40.5303" x="25" y="77.9951">Client</text><ellipse cx="48.2651" cy="13.5" fill="#E2E2F0" rx="8" ry="8" style="stroke:#181818;stroke-width:0.5;"/><path d="M48.2651,21.5 L48.2651,48.5 M35.2651,29.5 L61.2651,29.5 M48.2651,48.5 L35.2651,63.5 M48.2651,48.5 L61.2651,63.5 " fill="none" style="stroke:#181818;stroke-width:0.5;"/><text fill="#000000" font-family="sans-serif" font-size="14" lengthAdjust="spacing" textLength="40.5303" x="25" y="963.542">Client</text><ellipse cx="48.2651" cy="975.3438" fill="#E2E2F0" rx="8" ry="8" style="stroke:#181818;stroke-width:0.5;"/><path d="M48.2651,983.3438 L48.2651,1010.3438 M35.2651,991.3438 L61.2651,991.3438 M48.2651,1010.3438 L35.2651,1025.3438 M48.2651,1010.3438 L61.2651,1025.3438 " fill="none" style="stroke:#181818;stroke-width:0.5;"/><rect fill="#E2E2F0" height="30.2969" rx="2.5" ry="2.5" style="stroke:#181818;stroke-width:0.5;" width="78.9619" x="142.9033" y="50"/><text fill="#000000" font-family="sans-serif" font-size="14" lengthAdjust="spacing" textLength="64.9619" x="149.9033" y="69.9951">publisher</text><rect fill="#E2E2F0" height="30.2969" rx="2.5" ry="2.5" style="stroke:#181818;stroke-width:0.5;" width="78.9619" x="142.9033" y="950.5469"/><text fill="#000000" font-family="sans-serif" font-size="14" lengthAdjust="spacing" textLength="64.9619" x="149.9033" y="970.542">publisher</text><path d="M262.6636,55 L323.2563,55 C328.2563,55 328.2563,68.1484 328.2563,68.1484 C328.2563,68.1484 328.2563,81.2969 323.2563,81.2969 L262.6636,81.2969 C257.6636,81.2969 257.6636,68.1484 257.6636,68.1484 C257.6636,68.1484 257.6636,55 262.6636,55 " fill="#E2E2F0" style="stroke:#181818;stroke-width:0.5;"/><path d="M323.2563,55 C318.2563,55 318.2563,68.1484 318.2563,68.1484 C318.2563,81.2969 323.2563,81.2969 323.2563,81.2969 " fill="none" style="stroke:#181818;stroke-width:0.5;"/><text fill="#000000" font-family="sans-serif" font-size="14" lengthAdjust="spacing" textLength="50.5928" x="262.6636" y="72.9951">InTopic</text><path d="M262.6636,950.5469 L323.2563,950.5469 C328.2563,950.5469 328.2563,963.6953 328.2563,963.6953 C328.2563,963.6953 328.2563,976.8438 323.2563,976.8438 L262.6636,976.8438 C257.6636,976.8438 257.6636,963.6953 257.6636,963.6953 C257.6636,963.6953 257.6636,950.5469 262.6636,950.5469 " fill="#E2E2F0" style="stroke:#181818;stroke-width:0.5;"/><path d="M323.2563,950.5469 C318.2563,950.5469 318.2563,963.6953 318.2563,963.6953 C318.2563,976.8438 323.2563,976.8438 323.2563,976.8438 " fill="none" style="stroke:#181818;stroke-width:0.5;"/><text fill="#000000" font-family="sans-serif" font-size="14" lengthAdjust="spacing" textLength="50.5928" x="262.6636" y="968.542">InTopic</text><path d="M343.2563,55 L416.229,55 C421.229,55 421.229,68.1484 421.229,68.1484 C421.229,68.1484 421.229,81.2969 416.229,81.2969 L343.2563,81.2969 C338.2563,81.2969 338.2563,68.1484 338.2563,68.1484 C338.2563,68.1484 338.2563,55 343.2563,55 " fill="#E2E2F0" style="stroke:#181818;stroke-width:0.5;"/><path d="M416.229,55 C411.229,55 411.229,68.1484 411.229,68.1484 C411.229,81.2969 416.229,81.2969 416.229,81.2969 " fill="none" style="stroke:#181818;stroke-width:0.5;"/><text fill="#000000" font-family="sans-serif" font-size="14" lengthAdjust="spacing" textLength="62.9727" x="343.2563" y="72.9951">OutTopic</text><path d="M343.2563,950.5469 L416.229,950.5469 C421.229,950.5469 421.229,963.6953 421.229,963.6953 C421.229,963.6953 421.229,976.8438 416.229,976.8438 L343.2563,976.8438 C338.2563,976.8438 338.2563,963.6953 338.2563,963.6953 C338.2563,963.6953 338.2563,950.5469 343.2563,950.5469 " fill="#E2E2F0" style="stroke:#181818;stroke-width:0.5;"/><path d="M416.229,950.5469 C411.229,950.5469 411.229,963.6953 411.229,963.6953 C411.229,976.8438 416.229,976.8438 416.229,976.8438 " fill="none" style="stroke:#181818;stroke-width:0.5;"/><text fill="#000000" font-family="sans-serif" font-size="14" lengthAdjust="spacing" textLength="62.9727" x="343.2563" y="968.542">OutTopic</text><rect fill="#E2E2F0" height="30.2969" rx="2.5" ry="2.5" style="stroke:#181818;stroke-width:0.5;" width="86.5566" x="457.1436" y="50"/><text fill="#000000" font-family="sans-serif" font-size="14" lengthAdjust="spacing" textLength="72.5566" x="464.1436" y="69.9951">discussion</text><rect fill="#E2E2F0" height="30.2969" rx="2.5" ry="2.5" style="stroke:#181818;stroke-width:0.5;" width="86.5566" x="457.1436" y="950.5469"/><text fill="#000000" font-family="sans-serif" font-size="14" lengthAdjust="spacing" textLength="72.5566" x="464.1436" y="970.542">discussion</text><text fill="#000000" font-family="sans-serif" font-size="14" lengthAdjust="spacing" textLength="73.6162" x="585.9268" y="77.9951">Cassandra</text><path d="M607.7349,29 C607.7349,19 625.7349,19 625.7349,19 C625.7349,19 643.7349,19 643.7349,29 L643.7349,55 C643.7349,65 625.7349,65 625.7349,65 C625.7349,65 607.7349,65 607.7349,55 L607.7349,29 " fill="#E2E2F0" style="stroke:#181818;stroke-width:1.5;"/><path d="M607.7349,29 C607.7349,39 625.7349,39 625.7349,39 C625.7349,39 643.7349,39 643.7349,29 " fill="none" style="stroke:#181818;stroke-width:1.5;"/><text fill="#000000" font-family="sans-serif" font-size="14" lengthAdjust="spacing" textLength="73.6162" x="585.9268" y="963.542">Cassandra</text><path d="M607.7349,976.8438 C607.7349,966.8438 625.7349,966.8438 625.7349,966.8438 C625.7349,966.8438 643.7349,966.8438 643.7349,976.8438 L643.7349,1002.8438 C643.7349,1012.8438 625.7349,1012.8438 625.7349,1012.8438 C625.7349,1012.8438 607.7349,1012.8438 607.7349,1002.8438 L607.7349,976.8438 " fill="#E2E2F0" style="stroke:#181818;stroke-width:1.5;"/><path d="M607.7349,976.8438 C607.7349,986.8438 625.7349,986.8438 625.7349,986.8438 C625.7349,986.8438 643.7349,986.8438 643.7349,976.8438 " fill="none" style="stroke:#181818;stroke-width:1.5;"/><rect fill="#008000" height="187.9297" style="stroke:#181818;stroke-width:1;" width="10" x="177.3843" y="155.5625"/><rect fill="#FF0000" height="263.4609" style="stroke:#181818;stroke-width:1;" width="10" x="177.3843" y="610.6875"/><rect fill="#FF0000" height="71.2656" style="stroke:#181818;stroke-width:1;" width="10" x="495.4219" y="372.625"/><rect fill="#FFFF00" height="205.1953" style="stroke:#181818;stroke-width:1;" width="10" x="495.4219" y="639.8203"/><rect fill="#008000" height="116.6641" style="stroke:#181818;stroke-width:1;" width="10" x="620.7349" y="668.9531"/><rect fill="#EEEEEE" height="3" style="stroke:#EEEEEE;stroke-width:1;" width="670.543" x="0" y="111.8633"/><line style="stroke:#000000;stroke-width:1;" x1="0" x2="670.543" y1="111.8633" y2="111.8633"/><line style="stroke:#000000;stroke-width:1;" x1="0" x2="670.543" y1="114.8633" y2="114.8633"/><rect fill="#EEEEEE" height="23.1328" style="stroke:#000000;stroke-width:2;" width="57.3354" x="306.6038" y="101.2969"/><text fill="#000000" font-family="sans-serif" font-size="13" font-weight="bold" lengthAdjust="spacing" textLength="38.8096" x="312.6038" y="117.3638">POST</text><polygon fill="#181818" points="165.3843,151.5625,175.3843,155.5625,165.3843,159.5625,169.3843,155.5625" style="stroke:#181818;stroke-width:1;"/><line style="stroke:#181818;stroke-width:1;" x1="48.2651" x2="171.3843" y1="155.5625" y2="155.5625"/><text fill="#000000" font-family="sans-serif" font-size="13" lengthAdjust="spacing" textLength="34.2646" x="55.2651" y="150.4966">POST</text><line style="stroke:#181818;stroke-width:1;" x1="187.3843" x2="229.3843" y1="199.8281" y2="199.8281"/><line style="stroke:#181818;stroke-width:1;" x1="229.3843" x2="229.3843" y1="199.8281" y2="212.8281"/><line style="stroke:#181818;stroke-width:1;" x1="188.3843" x2="229.3843" y1="212.8281" y2="212.8281"/><polygon fill="#181818" points="198.3843,208.8281,188.3843,212.8281,198.3843,216.8281,194.3843,212.8281" style="stroke:#181818;stroke-width:1;"/><text fill="#000000" font-family="sans-serif" font-size="13" lengthAdjust="spacing" textLength="58.8936" x="194.3843" y="179.6294">generate</text><text fill="#000000" font-family="sans-serif" font-size="13" lengthAdjust="spacing" textLength="11.8638" x="194.3843" y="194.7622">id</text><line style="stroke:#181818;stroke-width:1;" x1="187.3843" x2="229.3843" y1="257.0938" y2="257.0938"/><line style="stroke:#181818;stroke-width:1;" x1="229.3843" x2="229.3843" y1="257.0938" y2="270.0938"/><line style="stroke:#181818;stroke-width:1;" x1="188.3843" x2="229.3843" y1="270.0938" y2="270.0938"/><polygon fill="#181818" points="198.3843,266.0938,188.3843,270.0938,198.3843,274.0938,194.3843,270.0938" style="stroke:#181818;stroke-width:1;"/><text fill="#000000" font-family="sans-serif" font-size="13" lengthAdjust="spacing" textLength="39.9458" x="194.3843" y="236.895">status</text><text fill="#000000" font-family="sans-serif" font-size="13" lengthAdjust="spacing" textLength="59.4204" x="194.3843" y="252.0278">PENDING</text><polygon fill="#181818" points="280.96,310.3594,290.96,314.3594,280.96,318.3594,284.96,314.3594" style="stroke:#181818;stroke-width:1;"/><line style="stroke:#181818;stroke-width:1;" x1="187.3843" x2="286.96" y1="314.3594" y2="314.3594"/><text fill="#000000" font-family="sans-serif" font-size="13" lengthAdjust="spacing" textLength="32.7412" x="194.3843" y="294.1606">Send</text><text fill="#000000" font-family="sans-serif" font-size="13" lengthAdjust="spacing" textLength="74.7627" x="194.3843" y="309.2935">_comment_</text><polygon fill="#181818" points="59.2651,339.4922,49.2651,343.4922,59.2651,347.4922,55.2651,343.4922" style="stroke:#181818;stroke-width:1;"/><line style="stroke:#181818;stroke-width:1;stroke-dasharray:2.0,2.0;" x1="53.2651" x2="181.3843" y1="343.4922" y2="343.4922"/><text fill="#000000" font-family="sans-serif" font-size="13" lengthAdjust="spacing" textLength="74.7627" x="65.2651" y="338.4263">_comment_</text><polygon fill="#181818" points="483.4219,368.625,493.4219,372.625,483.4219,376.625,487.4219,372.625" style="stroke:#181818;stroke-width:1;"/><line style="stroke:#181818;stroke-width:1;" x1="292.96" x2="489.4219" y1="372.625" y2="372.625"/><text fill="#000000" font-family="sans-serif" font-size="13" lengthAdjust="spacing" textLength="147.5132" x="299.96" y="367.5591">Read draft _comment_</text><line style="stroke:#181818;stroke-width:1;" x1="505.4219" x2="547.4219" y1="401.7578" y2="401.7578"/><line style="stroke:#181818;stroke-width:1;" x1="547.4219" x2="547.4219" y1="401.7578" y2="414.7578"/><line style="stroke:#181818;stroke-width:1;" x1="506.4219" x2="547.4219" y1="414.7578" y2="414.7578"/><polygon fill="#181818" points="516.4219,410.7578,506.4219,414.7578,516.4219,418.7578,512.4219,414.7578" style="stroke:#181818;stroke-width:1;"/><text fill="#000000" font-family="sans-serif" font-size="13" lengthAdjust="spacing" textLength="63.2734" x="512.4219" y="396.6919">moderate</text><polygon fill="#181818" points="613.7349,439.8906,623.7349,443.8906,613.7349,447.8906,617.7349,443.8906" style="stroke:#181818;stroke-width:1;"/><line style="stroke:#181818;stroke-width:1;" x1="500.4219" x2="619.7349" y1="443.8906" y2="443.8906"/><text fill="#000000" font-family="sans-serif" font-size="13" lengthAdjust="spacing" textLength="96.313" x="507.4219" y="438.8247">Save database</text><path d="M5,456.8906 L5,511.8906 L178,511.8906 L178,466.8906 L168,456.8906 L5,456.8906 " fill="#FEFFDD" style="stroke:#181818;stroke-width:0.5;"/><path d="M168,456.8906 L168,466.8906 L178,466.8906 L168,456.8906 " fill="#FEFFDD" style="stroke:#181818;stroke-width:0.5;"/><text fill="#000000" font-family="sans-serif" font-size="13" lengthAdjust="spacing" textLength="152.1914" x="11" y="473.9575">The first entry _author_</text><text fill="#000000" font-family="sans-serif" font-size="13" lengthAdjust="spacing" textLength="73.7217" x="11" y="489.0903">contain the</text><text fill="#000000" font-family="sans-serif" font-size="13" font-weight="bold" lengthAdjust="spacing" textLength="72.7695" x="88.854" y="489.0903">lastname:</text><text fill="#FF0000" font-family="sans-serif" font-size="13" font-weight="bold" lengthAdjust="spacing" textLength="82.1958" x="11" y="504.2231">_lastName_</text><rect fill="#EEEEEE" height="3" style="stroke:#EEEEEE;stroke-width:1;" width="670.543" x="0" y="537.8555"/><line style="stroke:#000000;stroke-width:1;" x1="0" x2="670.543" y1="537.8555" y2="537.8555"/><line style="stroke:#000000;stroke-width:1;" x1="0" x2="670.543" y1="540.8555" y2="540.8555"/><rect fill="#EEEEEE" height="23.1328" style="stroke:#000000;stroke-width:2;" width="139.9756" x="265.2837" y="527.2891"/><text fill="#000000" font-family="sans-serif" font-size="13" font-weight="bold" lengthAdjust="spacing" textLength="121.4497" x="271.2837" y="543.356">GET/PUT/DELETE</text><polygon fill="#181818" points="170.3843,577.5547,180.3843,581.5547,170.3843,585.5547,174.3843,581.5547" style="stroke:#181818;stroke-width:1;"/><line style="stroke:#181818;stroke-width:1;" x1="48.2651" x2="176.3843" y1="581.5547" y2="581.5547"/><text fill="#000000" font-family="sans-serif" font-size="13" lengthAdjust="spacing" textLength="110.1191" x="55.2651" y="576.4888">GET/PUT/DELETE</text><polygon fill="#181818" points="280.96,606.6875,290.96,610.6875,280.96,614.6875,284.96,610.6875" style="stroke:#181818;stroke-width:1;"/><line style="stroke:#181818;stroke-width:1;" x1="187.3843" x2="286.96" y1="610.6875" y2="610.6875"/><text fill="#000000" font-family="sans-serif" font-size="13" lengthAdjust="spacing" textLength="86.5757" x="194.3843" y="605.6216">Send request</text><polygon fill="#181818" points="483.4219,635.8203,493.4219,639.8203,483.4219,643.8203,487.4219,639.8203" style="stroke:#181818;stroke-width:1;"/><line style="stroke:#181818;stroke-width:1;" x1="292.96" x2="489.4219" y1="639.8203" y2="639.8203"/><text fill="#000000" font-family="sans-serif" font-size="13" lengthAdjust="spacing" textLength="87.0835" x="299.96" y="634.7544">Read request</text><polygon fill="#181818" points="608.7349,664.9531,618.7349,668.9531,608.7349,672.9531,612.7349,668.9531" style="stroke:#181818;stroke-width:1;"/><line style="stroke:#181818;stroke-width:1;" x1="505.4219" x2="614.7349" y1="668.9531" y2="668.9531"/><text fill="#000000" font-family="sans-serif" font-size="13" lengthAdjust="spacing" textLength="64.6953" x="512.4219" y="663.8872">Operation</text><line style="stroke:#181818;stroke-width:1;" x1="187.3843" x2="229.3843" y1="743.4844" y2="743.4844"/><line style="stroke:#181818;stroke-width:1;" x1="229.3843" x2="229.3843" y1="743.4844" y2="756.4844"/><line style="stroke:#181818;stroke-width:1;" x1="188.3843" x2="229.3843" y1="756.4844" y2="756.4844"/><polygon fill="#181818" points="198.3843,752.4844,188.3843,756.4844,198.3843,760.4844,194.3843,756.4844" style="stroke:#181818;stroke-width:1;"/><text fill="#000000" font-family="sans-serif" font-size="13" lengthAdjust="spacing" textLength="27.3076" x="194.3843" y="693.02">wait</text><text fill="#000000" font-family="sans-serif" font-size="13" lengthAdjust="spacing" textLength="27.5806" x="194.3843" y="708.1528">with</text><text fill="#000000" font-family="sans-serif" font-size="13" lengthAdjust="spacing" textLength="50.6606" x="194.3843" y="723.2856">timeout</text><text fill="#000000" font-family="sans-serif" font-size="13" lengthAdjust="spacing" textLength="15.0439" x="194.3843" y="738.4185">1s</text><polygon fill="#181818" points="516.4219,781.6172,506.4219,785.6172,516.4219,789.6172,512.4219,785.6172" style="stroke:#181818;stroke-width:1;"/><line style="stroke:#181818;stroke-width:1;stroke-dasharray:2.0,2.0;" x1="510.4219" x2="624.7349" y1="785.6172" y2="785.6172"/><text fill="#000000" font-family="sans-serif" font-size="13" lengthAdjust="spacing" textLength="40.752" x="522.4219" y="780.5513">Result</text><polygon fill="#181818" points="390.7427,841.0156,380.7427,845.0156,390.7427,849.0156,386.7427,845.0156" style="stroke:#181818;stroke-width:1;"/><line style="stroke:#181818;stroke-width:1;" x1="384.7427" x2="499.4219" y1="845.0156" y2="845.0156"/><text fill="#000000" font-family="sans-serif" font-size="13" lengthAdjust="spacing" textLength="32.7412" x="396.7427" y="809.6841">Send</text><text fill="#000000" font-family="sans-serif" font-size="13" lengthAdjust="spacing" textLength="91.6792" x="396.7427" y="824.8169">_comment_(s)</text><text fill="#000000" font-family="sans-serif" font-size="13" lengthAdjust="spacing" textLength="49.4165" x="396.7427" y="839.9497">or error</text><polygon fill="#181818" points="193.3843,870.1484,183.3843,874.1484,193.3843,878.1484,189.3843,874.1484" style="stroke:#181818;stroke-width:1;"/><line style="stroke:#181818;stroke-width:1;" x1="187.3843" x2="378.7427" y1="874.1484" y2="874.1484"/><text fill="#000000" font-family="sans-serif" font-size="13" lengthAdjust="spacing" textLength="33.249" x="199.3843" y="869.0825">Read</text><polygon fill="#181818" points="59.2651,929.5469,49.2651,933.5469,59.2651,937.5469,55.2651,933.5469" style="stroke:#181818;stroke-width:1;"/><line style="stroke:#181818;stroke-width:1;" x1="53.2651" x2="181.3843" y1="933.5469" y2="933.5469"/><text fill="#000000" font-family="sans-serif" font-size="13" lengthAdjust="spacing" textLength="43.9512" x="65.2651" y="898.2153">Return</text><text fill="#000000" font-family="sans-serif" font-size="13" lengthAdjust="spacing" textLength="91.6792" x="65.2651" y="913.3481">_comment_(s)</text><text fill="#000000" font-family="sans-serif" font-size="13" lengthAdjust="spacing" textLength="49.4165" x="65.2651" y="928.481">or error</text><!--SRC=[VPD1RwCm48Nl_XMZzhARAehsYWAN5bMLgYHgsHiI6c1eh8BDsaEp_VThax10kYmtuy-UD- -DiM1juBwMf5YqQ5WMiaN5q7PvBUsHZCZrRtZ7wXt5huuwWYULw5OMbzM-u_EIL0aEdLrIIbjqragjH8cCELg2UxGMLMbGY324m_urWJ0KuYm1rj5O6UxkuFRD4AcWvyIuCyK2U2D51fbI9Sj5o39oPrDrY7SFJxl7ENVfAO1NrqQgia8tZPEJ2KFS6GNZ3o4kh3yszjThDLG6y49OWckluicf2JWx5a2Zorxx5VBNfVNQYS8FWi508PHcWffS0LrDSWBt9KU2IXhBuCgQJyYmuwCsMRzPQCKe5R23LgiQBIjiA5Yj-jrj7cqhHpYirYQySStSH9cdTexAjXk_6MqtUTH7xKNq2Jx6oURmCzaynCzn4Yzb6Lnn_x4V3BdHiYomOFdXh9bCXBVutm5u_p-fhlNf4i5mouAlut110FlMP-37T6bwJYWvLIV9nrInR4XtRld33lFnGhQhhsiDJwEFS3vNt-ptLBc7HyPe8mRmggPlGvJqrOQvohFR7lTIbehy0G00]--></g></svg>